<svg xmlns="http://www.w3.org/2000/svg" xmlns:xlink="http://www.w3.org/1999/xlink" version="1.1" class="marks" width="437" height="347" viewBox="0 0 437 347"><rect width="437" height="347" fill="white"/><g fill="none" stroke-miterlimit="10" transform="translate(33,10)"><g class="mark-group role-frame root" role="graphics-object" aria-roledescription="group mark container"><g transform="translate(0,0)"><path class="background" aria-hidden="true" d="M0.5,0.5h300v300h-300Z" stroke="#ddd"/><g><g class="mark-group role-axis" aria-hidden="true"><g transform="translate(0.5,300.5)"><path class="background" aria-hidden="true" d="M0,0h0v0h0Z" pointer-events="none"/><g><g class="mark-rule role-axis-grid" pointer-events="none"><line transform="translate(0,-300)" x2="0" y2="300" stroke="#ddd" stroke-width="1" opacity="1"/><line transform="translate(38,-300)" x2="0" y2="300" stroke="#ddd" stroke-width="1" opacity="1"/><line transform="translate(75,-300)" x2="0" y2="300" stroke="#ddd" stroke-width="1" opacity="1"/><line transform="translate(113,-300)" x2="0" y2="300" stroke="#ddd" stroke-width="1" opacity="1"/><line transform="translate(150,-300)" x2="0" y2="300" stroke="#ddd" stroke-width="1" opacity="1"/><line transform="translate(188,-300)" x2="0" y2="300" stroke="#ddd" stroke-width="1" opacity="1"/><line transform="translate(225,-300)" x2="0" y2="300" stroke="#ddd" stroke-width="1" opacity="1"/><line transform="translate(263,-300)" x2="0" y2="300" stroke="#ddd" stroke-width="1" opacity="1"/><line transform="translate(300,-300)" x2="0" y2="300" stroke="#ddd" stroke-width="1" opacity="1"/></g></g><path class="foreground" aria-hidden="true" d="" pointer-events="none" display="none"/></g></g><g class="mark-group role-axis" aria-hidden="true"><g transform="translate(0.5,0.5)"><path class="background" aria-hidden="true" d="M0,0h0v0h0Z" pointer-events="none"/><g><g class="mark-rule role-axis-grid" pointer-events="none"><line transform="translate(0,300)" x2="300" y2="0" stroke="#ddd" stroke-width="1" opacity="1"/><line transform="translate(0,263)" x2="300" y2="0" stroke="#ddd" stroke-width="1" opacity="1"/><line transform="translate(0,225)" x2="300" y2="0" stroke="#ddd" stroke-width="1" opacity="1"/><line transform="translate(0,188)" x2="300" y2="0" stroke="#ddd" stroke-width="1" opacity="1"/><line transform="translate(0,150)" x2="300" y2="0" stroke="#ddd" stroke-width="1" opacity="1"/><line transform="translate(0,113)" x2="300" y2="0" stroke="#ddd" stroke-width="1" opacity="1"/><line transform="translate(0,75)" x2="300" y2="0" stroke="#ddd" stroke-width="1" opacity="1"/><line transform="translate(0,38)" x2="300" y2="0" stroke="#ddd" stroke-width="1" opacity="1"/><line transform="translate(0,0)" x2="300" y2="0" stroke="#ddd" stroke-width="1" opacity="1"/></g></g><path class="foreground" aria-hidden="true" d="" pointer-events="none" display="none"/></g></g><g class="mark-group role-axis" role="graphics-symbol" aria-roledescription="axis" aria-label="X-axis titled 'Temps (jours)' for a linear scale with values from 0 to 160"><g transform="translate(0.5,300.5)"><path class="background" aria-hidden="true" d="M0,0h0v0h0Z" pointer-events="none"/><g><g class="mark-rule role-axis-tick" pointer-events="none"><line transform="translate(0,0)" x2="0" y2="5" stroke="#888" stroke-width="1" opacity="1"/><line transform="translate(38,0)" x2="0" y2="5" stroke="#888" stroke-width="1" opacity="1"/><line transform="translate(75,0)" x2="0" y2="5" stroke="#888" stroke-width="1" opacity="1"/><line transform="translate(113,0)" x2="0" y2="5" stroke="#888" stroke-width="1" opacity="1"/><line transform="translate(150,0)" x2="0" y2="5" stroke="#888" stroke-width="1" opacity="1"/><line transform="translate(188,0)" x2="0" y2="5" stroke="#888" stroke-width="1" opacity="1"/><line transform="translate(225,0)" x2="0" y2="5" stroke="#888" stroke-width="1" opacity="1"/><line transform="translate(263,0)" x2="0" y2="5" stroke="#888" stroke-width="1" opacity="1"/><line transform="translate(300,0)" x2="0" y2="5" stroke="#888" stroke-width="1" opacity="1"/></g><g class="mark-text role-axis-label" pointer-events="none"><text text-anchor="start" transform="translate(0,15)" font-family="sans-serif" font-size="10px" fill="#000" opacity="1">0</text><text text-anchor="middle" transform="translate(37.5,15)" font-family="sans-serif" font-size="10px" fill="#000" opacity="1">20</text><text text-anchor="middle" transform="translate(75,15)" font-family="sans-serif" font-size="10px" fill="#000" opacity="1">40</text><text text-anchor="middle" transform="translate(112.5,15)" font-family="sans-serif" font-size="10px" fill="#000" opacity="1">60</text><text text-anchor="middle" transform="translate(150,15)" font-family="sans-serif" font-size="10px" fill="#000" opacity="1">80</text><text text-anchor="middle" transform="translate(187.5,15)" font-family="sans-serif" font-size="10px" fill="#000" opacity="1">100</text><text text-anchor="middle" transform="translate(225,15)" font-family="sans-serif" font-size="10px" fill="#000" opacity="1">120</text><text text-anchor="middle" transform="translate(262.5,15)" font-family="sans-serif" font-size="10px" fill="#000" opacity="1">140</text><text text-anchor="end" transform="translate(300,15)" font-family="sans-serif" font-size="10px" fill="#000" opacity="1">160</text></g><g class="mark-rule role-axis-domain" pointer-events="none"><line transform="translate(0,0)" x2="300" y2="0" stroke="#888" stroke-width="1" opacity="1"/></g><g class="mark-text role-axis-title" pointer-events="none"><text text-anchor="middle" transform="translate(150,30)" font-family="sans-serif" font-size="11px" font-weight="bold" fill="#000" opacity="1">Temps (jours)</text></g></g><path class="foreground" aria-hidden="true" d="" pointer-events="none" display="none"/></g></g><g class="mark-group role-axis" role="graphics-symbol" aria-roledescription="axis" aria-label="Y-axis titled 'Personnes (millions)' for a linear scale with values from 0 to 8"><g transform="translate(0.5,0.5)"><path class="background" aria-hidden="true" d="M0,0h0v0h0Z" pointer-events="none"/><g><g class="mark-rule role-axis-tick" pointer-events="none"><line transform="translate(0,300)" x2="-5" y2="0" stroke="#888" stroke-width="1" opacity="1"/><line transform="translate(0,263)" x2="-5" y2="0" stroke="#888" stroke-width="1" opacity="1"/><line transform="translate(0,225)" x2="-5" y2="0" stroke="#888" stroke-width="1" opacity="1"/><line transform="translate(0,188)" x2="-5" y2="0" stroke="#888" stroke-width="1" opacity="1"/><line transform="translate(0,150)" x2="-5" y2="0" stroke="#888" stroke-width="1" opacity="1"/><line transform="translate(0,113)" x2="-5" y2="0" stroke="#888" stroke-width="1" opacity="1"/><line transform="translate(0,75)" x2="-5" y2="0" stroke="#888" stroke-width="1" opacity="1"/><line transform="translate(0,38)" x2="-5" y2="0" stroke="#888" stroke-width="1" opacity="1"/><line transform="translate(0,0)" x2="-5" y2="0" stroke="#888" stroke-width="1" opacity="1"/></g><g class="mark-text role-axis-label" pointer-events="none"><text text-anchor="end" transform="translate(-7,303)" font-family="sans-serif" font-size="10px" fill="#000" opacity="1">0</text><text text-anchor="end" transform="translate(-7,265.5)" font-family="sans-serif" font-size="10px" fill="#000" opacity="1">1</text><text text-anchor="end" transform="translate(-7,228)" font-family="sans-serif" font-size="10px" fill="#000" opacity="1">2</text><text text-anchor="end" transform="translate(-7,190.5)" font-family="sans-serif" font-size="10px" fill="#000" opacity="1">3</text><text text-anchor="end" transform="translate(-7,153)" font-family="sans-serif" font-size="10px" fill="#000" opacity="1">4</text><text text-anchor="end" transform="translate(-7,115.5)" font-family="sans-serif" font-size="10px" fill="#000" opacity="1">5</text><text text-anchor="end" transform="translate(-7,78)" font-family="sans-serif" font-size="10px" fill="#000" opacity="1">6</text><text text-anchor="end" transform="translate(-7,40.5)" font-family="sans-serif" font-size="10px" fill="#000" opacity="1">7</text><text text-anchor="end" transform="translate(-7,3)" font-family="sans-serif" font-size="10px" fill="#000" opacity="1">8</text></g><g class="mark-rule role-axis-domain" pointer-events="none"><line transform="translate(0,300)" x2="0" y2="-300" stroke="#888" stroke-width="1" opacity="1"/></g><g class="mark-text role-axis-title" pointer-events="none"><text text-anchor="middle" transform="translate(-16.5615234375,150) rotate(-90) translate(0,-2)" font-family="sans-serif" font-size="11px" font-weight="bold" fill="#000" opacity="1">Personnes (millions)</text></g></g><path class="foreground" aria-hidden="true" d="" pointer-events="none" display="none"/></g></g><g class="mark-group role-scope pathgroup" role="graphics-object" aria-roledescription="group mark container"><g transform="translate(0,0)"><path class="background" aria-hidden="true" d="M0,0h300v300h-300Z"/><g><g class="mark-line role-mark marks" role="graphics-object" aria-roledescription="line mark container"><path aria-label="index: 0; value: 7.5; variable: S" role="graphics-symbol" aria-roledescription="line mark" d="M0,18.75L0.282,18.759L0.563,18.767L0.845,18.777L1.126,18.786L1.408,18.796L1.689,18.806L1.971,18.817L2.252,18.828L2.534,18.839L2.815,18.851L3.097,18.863L3.378,18.876L3.66,18.889L3.941,18.902L4.223,18.916L4.505,18.93L4.786,18.945L5.068,18.961L5.349,18.977L5.631,18.993L5.912,19.01L6.194,19.028L6.475,19.046L6.757,19.065L7.038,19.085L7.32,19.105L7.601,19.126L7.883,19.148L8.164,19.171L8.446,19.194L8.727,19.218L9.009,19.243L9.291,19.269L9.572,19.296L9.854,19.324L10.135,19.352L10.417,19.382L10.698,19.413L10.98,19.445L11.261,19.477L11.543,19.511L11.824,19.547L12.106,19.583L12.387,19.621L12.669,19.66L12.95,19.7L13.232,19.742L13.514,19.785L13.795,19.83L14.077,19.877L14.358,19.925L14.64,19.974L14.921,20.026L15.203,20.079L15.484,20.134L15.766,20.191L16.047,20.249L16.329,20.31L16.61,20.373L16.892,20.438L17.173,20.506L17.455,20.576L17.736,20.648L18.018,20.723L18.3,20.8L18.581,20.88L18.863,20.962L19.144,21.048L19.426,21.136L19.707,21.228L19.989,21.323L20.27,21.421L20.552,21.522L20.833,21.627L21.115,21.735L21.396,21.847L21.678,21.963L21.959,22.083L22.241,22.207L22.523,22.335L22.804,22.467L23.086,22.604L23.367,22.746L23.649,22.893L23.93,23.044L24.212,23.201L24.493,23.363L24.775,23.53L25.056,23.703L25.338,23.882L25.619,24.067L25.901,24.258L26.182,24.455L26.464,24.659L26.745,24.87L27.027,25.088L27.309,25.313L27.59,25.545L27.872,25.786L28.153,26.034L28.435,26.29L28.716,26.555L28.998,26.829L29.279,27.111L29.561,27.403L29.842,27.704L30.124,28.015L30.405,28.336L30.687,28.668L30.968,29.01L31.25,29.363L31.532,29.728L31.813,30.104L32.095,30.492L32.376,30.892L32.658,31.305L32.939,31.731L33.221,32.17L33.502,32.623L33.784,33.09L34.065,33.572L34.347,34.068L34.628,34.58L34.91,35.107L35.191,35.65L35.473,36.209L35.755,36.786L36.036,37.379L36.318,37.99L36.599,38.62L36.881,39.267L37.162,39.934L37.444,40.62L37.725,41.325L38.007,42.051L38.288,42.797L38.57,43.564L38.851,44.353L39.133,45.164L39.414,45.996L39.696,46.852L39.977,47.73L40.259,48.632L40.541,49.558L40.822,50.508L41.104,51.483L41.385,52.482L41.667,53.507L41.948,54.558L42.23,55.635L42.511,56.738L42.793,57.868L43.074,59.024L43.356,60.208L43.637,61.419L43.919,62.658L44.2,63.925L44.482,65.22L44.764,66.543L45.045,67.894L45.327,69.273L45.608,70.681L45.89,72.118L46.171,73.583L46.453,75.076L46.734,76.598L47.016,78.147L47.297,79.726L47.579,81.331L47.86,82.965L48.142,84.626L48.423,86.314L48.705,88.029L48.986,89.771L49.268,91.538L49.55,93.331L49.831,95.149L50.113,96.992L50.394,98.858L50.676,100.747L50.957,102.659L51.239,104.593L51.52,106.548L51.802,108.523L52.083,110.518L52.365,112.531L52.646,114.562L52.928,116.61L53.209,118.673L53.491,120.751L53.773,122.843L54.054,124.947L54.336,127.063L54.617,129.189L54.899,131.325L55.18,133.468L55.462,135.619L55.743,137.776L56.025,139.937L56.306,142.102L56.588,144.269L56.869,146.437L57.151,148.605L57.432,150.772L57.714,152.936L57.995,155.097L58.277,157.253L58.559,159.403L58.84,161.547L59.122,163.682L59.403,165.808L59.685,167.923L59.966,170.028L60.248,172.12L60.529,174.199L60.811,176.264L61.092,178.313L61.374,180.347L61.655,182.364L61.937,184.364L62.218,186.345L62.5,188.307L62.782,190.249L63.063,192.171L63.345,194.072L63.626,195.952L63.908,197.81L64.189,199.644L64.471,201.456L64.752,203.245L65.034,205.01L65.315,206.751L65.597,208.467L65.878,210.159L66.16,211.825L66.441,213.467L66.723,215.084L67.005,216.675L67.286,218.241L67.568,219.781L67.849,221.296L68.131,222.785L68.412,224.249L68.694,225.687L68.975,227.1L69.257,228.488L69.538,229.85L69.82,231.188L70.101,232.5L70.383,233.788L70.664,235.052L70.946,236.291L71.227,237.507L71.509,238.698L71.791,239.866L72.072,241.011L72.354,242.133L72.635,243.232L72.917,244.309L73.198,245.363L73.48,246.396L73.761,247.408L74.043,248.398L74.324,249.367L74.606,250.316L74.887,251.245L75.169,252.154L75.45,253.044L75.732,253.914L76.014,254.766L76.295,255.599L76.577,256.414L76.858,257.212L77.14,257.992L77.421,258.755L77.703,259.501L77.984,260.231L78.266,260.944L78.547,261.642L78.829,262.325L79.11,262.992L79.392,263.645L79.673,264.283L79.955,264.907L80.236,265.517L80.518,266.113L80.8,266.696L81.081,267.267L81.363,267.824L81.644,268.369L81.926,268.902L82.207,269.424L82.489,269.933L82.77,270.431L83.052,270.919L83.333,271.395L83.615,271.861L83.896,272.317L84.178,272.762L84.459,273.198L84.741,273.624L85.023,274.041L85.304,274.448L85.586,274.847L85.867,275.237L86.149,275.618L86.43,275.991L86.712,276.356L86.993,276.713L87.275,277.062L87.556,277.404L87.838,277.738L88.119,278.065L88.401,278.385L88.682,278.698L88.964,279.004L89.245,279.304L89.527,279.598L89.809,279.885L90.09,280.166L90.372,280.442L90.653,280.711L90.935,280.975L91.216,281.233L91.498,281.486L91.779,281.733L92.061,281.976L92.342,282.213L92.624,282.446L92.905,282.674L93.187,282.897L93.468,283.115L93.75,283.329L94.032,283.539L94.313,283.744L94.595,283.945L94.876,284.143L95.158,284.336L95.439,284.525L95.721,284.711L96.002,284.893L96.284,285.071L96.565,285.246L96.847,285.417L97.128,285.585L97.41,285.75L97.691,285.912L97.973,286.07L98.255,286.225L98.536,286.378L98.818,286.527L99.099,286.673L99.381,286.817L99.662,286.958L99.944,287.096L100.225,287.232L100.507,287.365L100.788,287.496L101.07,287.624L101.351,287.75L101.633,287.874L101.914,287.995L102.196,288.114L102.477,288.231L102.759,288.345L103.041,288.458L103.322,288.568L103.604,288.677L103.885,288.783L104.167,288.888L104.448,288.991L104.73,289.092L105.011,289.191L105.293,289.288L105.574,289.384L105.856,289.478L106.137,289.57L106.419,289.661L106.7,289.75L106.982,289.838L107.264,289.924L107.545,290.009L107.827,290.092L108.108,290.174L108.39,290.254L108.671,290.333L108.953,290.411L109.234,290.487L109.516,290.562L109.797,290.636L110.079,290.708L110.36,290.78L110.642,290.85L110.923,290.919L111.205,290.987L111.486,291.054L111.768,291.119L112.05,291.184L112.331,291.247L112.613,291.31L112.894,291.371L113.176,291.432L113.457,291.492L113.739,291.55L114.02,291.608L114.302,291.665L114.583,291.72L114.865,291.775L115.146,291.83L115.428,291.883L115.709,291.935L115.991,291.987L116.273,292.038L116.554,292.088L116.836,292.137L117.117,292.186L117.399,292.233L117.68,292.28L117.962,292.327L118.243,292.372L118.525,292.417L118.806,292.462L119.088,292.505L119.369,292.548L119.651,292.59L119.932,292.632L120.214,292.673L120.495,292.714L120.777,292.754L121.059,292.793L121.34,292.832L121.622,292.87L121.903,292.907L122.185,292.944L122.466,292.981L122.748,293.017L123.029,293.052L123.311,293.087L123.592,293.122L123.874,293.155L124.155,293.189L124.437,293.222L124.718,293.254L125,293.286L125.282,293.318L125.563,293.349L125.845,293.38L126.126,293.41L126.408,293.44L126.689,293.47L126.971,293.499L127.252,293.527L127.534,293.556L127.815,293.583L128.097,293.611L128.378,293.638L128.66,293.665L128.941,293.691L129.223,293.717L129.505,293.743L129.786,293.768L130.068,293.793L130.349,293.818L130.631,293.842L130.912,293.866L131.194,293.89L131.475,293.913L131.757,293.936L132.038,293.959L132.32,293.981L132.601,294.004L132.883,294.025L133.164,294.047L133.446,294.068L133.727,294.089L134.009,294.11L134.291,294.131L134.572,294.151L134.854,294.171L135.135,294.19L135.417,294.21L135.698,294.229L135.98,294.248L136.261,294.267L136.543,294.285L136.824,294.303L137.106,294.321L137.387,294.339L137.669,294.357L137.95,294.374L138.232,294.391L138.514,294.408L138.795,294.425L139.077,294.441L139.358,294.457L139.64,294.473L139.921,294.489L140.203,294.505L140.484,294.52L140.766,294.536L141.047,294.551L141.329,294.566L141.61,294.58L141.892,294.595L142.173,294.609L142.455,294.623L142.736,294.637L143.018,294.651L143.3,294.665L143.581,294.678L143.863,294.692L144.144,294.705L144.426,294.718L144.707,294.731L144.989,294.744L145.27,294.756L145.552,294.769L145.833,294.781L146.115,294.793L146.396,294.805L146.678,294.817L146.959,294.828L147.241,294.84L147.523,294.851L147.804,294.863L148.086,294.874L148.367,294.885L148.649,294.896L148.93,294.906L149.212,294.917L149.493,294.928L149.775,294.938L150.056,294.948L150.338,294.958L150.619,294.968L150.901,294.978L151.182,294.988L151.464,294.998L151.745,295.007L152.027,295.017L152.309,295.026L152.59,295.035L152.872,295.044L153.153,295.053L153.435,295.062L153.716,295.071L153.998,295.08L154.279,295.089L154.561,295.097L154.842,295.106L155.124,295.114L155.405,295.122L155.687,295.13L155.968,295.138L156.25,295.146L156.532,295.154L156.813,295.162L157.095,295.17L157.376,295.177L157.658,295.185L157.939,295.192L158.221,295.199L158.502,295.207L158.784,295.214L159.065,295.221L159.347,295.228L159.628,295.235L159.91,295.242L160.191,295.249L160.473,295.255L160.755,295.262L161.036,295.269L161.318,295.275L161.599,295.282L161.881,295.288L162.162,295.294L162.444,295.3L162.725,295.307L163.007,295.313L163.288,295.319L163.57,295.325L163.851,295.331L164.133,295.336L164.414,295.342L164.696,295.348L164.977,295.353L165.259,295.359L165.541,295.364L165.822,295.37L166.104,295.375L166.385,295.381L166.667,295.386L166.948,295.391L167.23,295.396L167.511,295.401L167.793,295.406L168.074,295.411L168.356,295.416L168.637,295.421L168.919,295.426L169.2,295.431L169.482,295.436L169.764,295.44L170.045,295.445L170.327,295.449L170.608,295.454L170.89,295.459L171.171,295.463L171.453,295.467L171.734,295.472L172.016,295.476L172.297,295.48L172.579,295.484L172.86,295.489L173.142,295.493L173.423,295.497L173.705,295.501L173.986,295.505L174.268,295.509L174.55,295.513L174.831,295.516L175.113,295.52L175.394,295.524L175.676,295.528L175.957,295.531L176.239,295.535L176.52,295.539L176.802,295.542L177.083,295.546L177.365,295.549L177.646,295.553L177.928,295.556L178.209,295.56L178.491,295.563L178.773,295.566L179.054,295.57L179.336,295.573L179.617,295.576L179.899,295.579L180.18,295.582L180.462,295.586L180.743,295.589L181.025,295.592L181.306,295.595L181.588,295.598L181.869,295.601L182.151,295.604L182.432,295.607L182.714,295.609L182.995,295.612L183.277,295.615L183.559,295.618L183.84,295.621L184.122,295.623L184.403,295.626L184.685,295.629L184.966,295.631L185.248,295.634L185.529,295.637L185.811,295.639L186.092,295.642L186.374,295.644L186.655,295.647L186.937,295.649L187.218,295.652L187.5,295.654L187.782,295.656L188.063,295.659L188.345,295.661L188.626,295.663L188.908,295.666L189.189,295.668L189.471,295.67L189.752,295.672L190.034,295.674L190.315,295.677L190.597,295.679L190.878,295.681L191.16,295.683L191.441,295.685L191.723,295.687L192.005,295.689L192.286,295.691L192.568,295.693L192.849,295.695L193.131,295.697L193.412,295.699L193.694,295.701L193.975,295.703L194.257,295.705L194.538,295.707L194.82,295.708L195.101,295.71L195.383,295.712L195.664,295.714L195.946,295.716L196.227,295.717L196.509,295.719L196.791,295.721L197.072,295.723L197.354,295.724L197.635,295.726L197.917,295.728L198.198,295.729L198.48,295.731L198.761,295.732L199.043,295.734L199.324,295.735L199.606,295.737L199.887,295.739L200.169,295.74L200.45,295.742L200.732,295.743L201.014,295.745L201.295,295.746L201.577,295.747L201.858,295.749L202.14,295.75L202.421,295.752L202.703,295.753L202.984,295.754L203.266,295.756L203.547,295.757L203.829,295.758L204.11,295.76L204.392,295.761L204.673,295.762L204.955,295.764L205.236,295.765L205.518,295.766L205.8,295.767L206.081,295.769L206.363,295.77L206.644,295.771L206.926,295.772L207.207,295.773L207.489,295.775L207.77,295.776L208.052,295.777L208.333,295.778L208.615,295.779L208.896,295.78L209.178,295.781L209.459,295.782L209.741,295.783L210.023,295.784L210.304,295.786L210.586,295.787L210.867,295.788L211.149,295.789L211.43,295.79L211.712,295.791L211.993,295.792L212.275,295.793L212.556,295.794L212.838,295.795L213.119,295.795L213.401,295.796L213.682,295.797L213.964,295.798L214.245,295.799L214.527,295.8L214.809,295.801L215.09,295.802L215.372,295.803L215.653,295.804L215.935,295.804L216.216,295.805L216.498,295.806L216.779,295.807L217.061,295.808L217.342,295.809L217.624,295.809L217.905,295.81L218.187,295.811L218.468,295.812L218.75,295.813L219.032,295.813L219.313,295.814L219.595,295.815L219.876,295.816L220.158,295.816L220.439,295.817L220.721,295.818L221.002,295.819L221.284,295.819L221.565,295.82L221.847,295.821L222.128,295.821L222.41,295.822L222.691,295.823L222.973,295.823L223.255,295.824L223.536,295.825L223.818,295.825L224.099,295.826L224.381,295.827L224.662,295.827L224.944,295.828L225.225,295.829L225.507,295.829L225.788,295.83L226.07,295.83L226.351,295.831L226.633,295.832L226.914,295.832L227.196,295.833L227.477,295.833L227.759,295.834L228.041,295.834L228.322,295.835L228.604,295.835L228.885,295.836L229.167,295.837L229.448,295.837L229.73,295.838L230.011,295.838L230.293,295.839L230.574,295.839L230.856,295.84L231.137,295.84L231.419,295.841L231.7,295.841L231.982,295.842L232.264,295.842L232.545,295.843L232.827,295.843L233.108,295.844L233.39,295.844L233.671,295.844L233.953,295.845L234.234,295.845L234.516,295.846L234.797,295.846L235.079,295.847L235.36,295.847L235.642,295.848L235.923,295.848L236.205,295.848L236.486,295.849L236.768,295.849L237.05,295.85L237.331,295.85L237.613,295.85L237.894,295.851L238.176,295.851L238.457,295.852L238.739,295.852L239.02,295.852L239.302,295.853L239.583,295.853L239.865,295.854L240.146,295.854L240.428,295.854L240.709,295.855L240.991,295.855L241.273,295.855L241.554,295.856L241.836,295.856L242.117,295.856L242.399,295.857L242.68,295.857L242.962,295.857L243.243,295.858L243.525,295.858L243.806,295.858L244.088,295.859L244.369,295.859L244.651,295.859L244.932,295.86L245.214,295.86L245.495,295.86L245.777,295.86L246.059,295.861L246.34,295.861L246.622,295.861L246.903,295.862L247.185,295.862L247.466,295.862L247.748,295.862L248.029,295.863L248.311,295.863L248.592,295.863L248.874,295.864L249.155,295.864L249.437,295.864L249.718,295.864L250,295.865L250.282,295.865L250.563,295.865L250.845,295.865L251.126,295.866L251.408,295.866L251.689,295.866L251.971,295.866L252.252,295.867L252.534,295.867L252.815,295.867L253.097,295.867L253.378,295.867L253.66,295.868L253.941,295.868L254.223,295.868L254.505,295.868L254.786,295.869L255.068,295.869L255.349,295.869L255.631,295.869L255.912,295.869L256.194,295.87L256.475,295.87L256.757,295.87L257.038,295.87L257.32,295.87L257.601,295.871L257.883,295.871L258.164,295.871L258.446,295.871L258.727,295.871L259.009,295.872L259.291,295.872L259.572,295.872L259.854,295.872L260.135,295.872L260.417,295.873L260.698,295.873L260.98,295.873L261.261,295.873L261.543,295.873L261.824,295.873L262.106,295.874L262.387,295.874L262.669,295.874L262.95,295.874L263.232,295.874L263.514,295.874L263.795,295.875L264.077,295.875L264.358,295.875L264.64,295.875L264.921,295.875L265.203,295.875L265.484,295.875L265.766,295.876L266.047,295.876L266.329,295.876L266.61,295.876L266.892,295.876L267.173,295.876L267.455,295.876L267.736,295.877L268.018,295.877L268.3,295.877L268.581,295.877L268.863,295.877L269.144,295.877L269.426,295.877L269.707,295.878L269.989,295.878L270.27,295.878L270.552,295.878L270.833,295.878L271.115,295.878L271.396,295.878L271.678,295.878L271.959,295.879L272.241,295.879L272.523,295.879L272.804,295.879L273.086,295.879L273.367,295.879L273.649,295.879L273.93,295.879L274.212,295.879L274.493,295.88L274.775,295.88L275.056,295.88L275.338,295.88L275.619,295.88L275.901,295.88L276.182,295.88L276.464,295.88L276.745,295.88L277.027,295.88L277.309,295.881L277.59,295.881L277.872,295.881L278.153,295.881L278.435,295.881L278.716,295.881L278.998,295.881L279.279,295.881L279.561,295.881L279.842,295.881L280.124,295.882L280.405,295.882L280.687,295.882L280.968,295.882L281.25,295.882" stroke="#e45756" stroke-width="2"/></g></g><path class="foreground" aria-hidden="true" d="" display="none"/></g><g transform="translate(0,0)"><path class="background" aria-hidden="true" d="M0,0h300v300h-300Z"/><g><g class="mark-line role-mark marks" role="graphics-object" aria-roledescription="line mark container"><path aria-label="index: 0; value: 0.005; variable: I" role="graphics-symbol" aria-roledescription="line mark" d="M0,299.813L0.282,299.806L0.563,299.799L0.845,299.792L1.126,299.785L1.408,299.777L1.689,299.769L1.971,299.761L2.252,299.753L2.534,299.744L2.815,299.735L3.097,299.726L3.378,299.716L3.66,299.706L3.941,299.696L4.223,299.685L4.505,299.674L4.786,299.663L5.068,299.651L5.349,299.639L5.631,299.626L5.912,299.613L6.194,299.599L6.475,299.585L6.757,299.571L7.038,299.556L7.32,299.54L7.601,299.524L7.883,299.507L8.164,299.49L8.446,299.472L8.727,299.454L9.009,299.434L9.291,299.415L9.572,299.394L9.854,299.373L10.135,299.351L10.417,299.328L10.698,299.305L10.98,299.28L11.261,299.255L11.543,299.229L11.824,299.202L12.106,299.174L12.387,299.145L12.669,299.115L12.95,299.084L13.232,299.052L13.514,299.019L13.795,298.985L14.077,298.949L14.358,298.913L14.64,298.875L14.921,298.835L15.203,298.795L15.484,298.752L15.766,298.709L16.047,298.664L16.329,298.617L16.61,298.569L16.892,298.519L17.173,298.468L17.455,298.414L17.736,298.359L18.018,298.302L18.3,298.243L18.581,298.182L18.863,298.118L19.144,298.053L19.426,297.985L19.707,297.915L19.989,297.843L20.27,297.768L20.552,297.691L20.833,297.611L21.115,297.528L21.396,297.442L21.678,297.354L21.959,297.262L22.241,297.167L22.523,297.069L22.804,296.968L23.086,296.864L23.367,296.756L23.649,296.644L23.93,296.528L24.212,296.409L24.493,296.285L24.775,296.157L25.056,296.026L25.338,295.889L25.619,295.748L25.901,295.603L26.182,295.452L26.464,295.297L26.745,295.136L27.027,294.97L27.309,294.799L27.59,294.622L27.872,294.439L28.153,294.251L28.435,294.056L28.716,293.854L28.998,293.646L29.279,293.432L29.561,293.21L29.842,292.982L30.124,292.746L30.405,292.502L30.687,292.251L30.968,291.991L31.25,291.724L31.532,291.448L31.813,291.163L32.095,290.869L32.376,290.567L32.658,290.254L32.939,289.933L33.221,289.601L33.502,289.259L33.784,288.907L34.065,288.544L34.347,288.17L34.628,287.785L34.91,287.388L35.191,286.979L35.473,286.559L35.755,286.126L36.036,285.681L36.318,285.222L36.599,284.751L36.881,284.266L37.162,283.768L37.444,283.255L37.725,282.728L38.007,282.187L38.288,281.631L38.57,281.06L38.851,280.473L39.133,279.871L39.414,279.253L39.696,278.619L39.977,277.969L40.259,277.302L40.541,276.618L40.822,275.917L41.104,275.2L41.385,274.464L41.667,273.712L41.948,272.941L42.23,272.153L42.511,271.347L42.793,270.523L43.074,269.68L43.356,268.82L43.637,267.941L43.919,267.044L44.2,266.128L44.482,265.194L44.764,264.242L45.045,263.272L45.327,262.284L45.608,261.277L45.89,260.253L46.171,259.212L46.453,258.153L46.734,257.076L47.016,255.983L47.297,254.874L47.579,253.748L47.86,252.606L48.142,251.45L48.423,250.278L48.705,249.092L48.986,247.892L49.268,246.678L49.55,245.452L49.831,244.214L50.113,242.964L50.394,241.704L50.676,240.434L50.957,239.155L51.239,237.867L51.52,236.572L51.802,235.27L52.083,233.963L52.365,232.651L52.646,231.335L52.928,230.016L53.209,228.695L53.491,227.374L53.773,226.052L54.054,224.732L54.336,223.414L54.617,222.1L54.899,220.79L55.18,219.486L55.462,218.188L55.743,216.898L56.025,215.617L56.306,214.346L56.588,213.085L56.869,211.837L57.151,210.602L57.432,209.382L57.714,208.176L57.995,206.987L58.277,205.814L58.559,204.66L58.84,203.525L59.122,202.41L59.403,201.315L59.685,200.243L59.966,199.192L60.248,198.165L60.529,197.162L60.811,196.183L61.092,195.229L61.374,194.302L61.655,193.4L61.937,192.526L62.218,191.679L62.5,190.86L62.782,190.068L63.063,189.306L63.345,188.572L63.626,187.867L63.908,187.192L64.189,186.546L64.471,185.93L64.752,185.343L65.034,184.787L65.315,184.26L65.597,183.763L65.878,183.295L66.16,182.857L66.441,182.449L66.723,182.07L67.005,181.72L67.286,181.399L67.568,181.107L67.849,180.843L68.131,180.608L68.412,180.4L68.694,180.22L68.975,180.066L69.257,179.94L69.538,179.84L69.82,179.766L70.101,179.717L70.383,179.693L70.664,179.694L70.946,179.719L71.227,179.768L71.509,179.84L71.791,179.934L72.072,180.051L72.354,180.189L72.635,180.348L72.917,180.528L73.198,180.728L73.48,180.948L73.761,181.187L74.043,181.444L74.324,181.719L74.606,182.012L74.887,182.321L75.169,182.647L75.45,182.989L75.732,183.347L76.014,183.719L76.295,184.106L76.577,184.507L76.858,184.921L77.14,185.349L77.421,185.789L77.703,186.24L77.984,186.704L78.266,187.179L78.547,187.664L78.829,188.16L79.11,188.665L79.392,189.18L79.673,189.704L79.955,190.237L80.236,190.777L80.518,191.326L80.8,191.882L81.081,192.445L81.363,193.015L81.644,193.591L81.926,194.174L82.207,194.762L82.489,195.355L82.77,195.954L83.052,196.557L83.333,197.164L83.615,197.776L83.896,198.392L84.178,199.011L84.459,199.633L84.741,200.259L85.023,200.887L85.304,201.518L85.586,202.151L85.867,202.787L86.149,203.424L86.43,204.062L86.712,204.702L86.993,205.344L87.275,205.986L87.556,206.629L87.838,207.273L88.119,207.917L88.401,208.562L88.682,209.206L88.964,209.851L89.245,210.495L89.527,211.139L89.809,211.782L90.09,212.425L90.372,213.066L90.653,213.707L90.935,214.347L91.216,214.986L91.498,215.623L91.779,216.259L92.061,216.894L92.342,217.526L92.624,218.157L92.905,218.786L93.187,219.414L93.468,220.039L93.75,220.662L94.032,221.283L94.313,221.902L94.595,222.518L94.876,223.132L95.158,223.743L95.439,224.352L95.721,224.959L96.002,225.562L96.284,226.163L96.565,226.761L96.847,227.357L97.128,227.949L97.41,228.538L97.691,229.125L97.973,229.708L98.255,230.289L98.536,230.866L98.818,231.44L99.099,232.012L99.381,232.579L99.662,233.144L99.944,233.705L100.225,234.264L100.507,234.818L100.788,235.37L101.07,235.918L101.351,236.463L101.633,237.004L101.914,237.543L102.196,238.077L102.477,238.608L102.759,239.136L103.041,239.661L103.322,240.182L103.604,240.699L103.885,241.213L104.167,241.724L104.448,242.231L104.73,242.734L105.011,243.234L105.293,243.731L105.574,244.224L105.856,244.714L106.137,245.2L106.419,245.683L106.7,246.162L106.982,246.638L107.264,247.11L107.545,247.579L107.827,248.044L108.108,248.506L108.39,248.964L108.671,249.419L108.953,249.871L109.234,250.319L109.516,250.764L109.797,251.205L110.079,251.643L110.36,252.078L110.642,252.509L110.923,252.937L111.205,253.362L111.486,253.783L111.768,254.201L112.05,254.615L112.331,255.027L112.613,255.435L112.894,255.839L113.176,256.241L113.457,256.639L113.739,257.034L114.02,257.426L114.302,257.815L114.583,258.2L114.865,258.583L115.146,258.962L115.428,259.338L115.709,259.711L115.991,260.081L116.273,260.447L116.554,260.811L116.836,261.172L117.117,261.53L117.399,261.884L117.68,262.236L117.962,262.585L118.243,262.931L118.525,263.273L118.806,263.613L119.088,263.95L119.369,264.285L119.651,264.616L119.932,264.945L120.214,265.27L120.495,265.593L120.777,265.913L121.059,266.23L121.34,266.545L121.622,266.857L121.903,267.166L122.185,267.473L122.466,267.776L122.748,268.077L123.029,268.376L123.311,268.672L123.592,268.965L123.874,269.256L124.155,269.544L124.437,269.83L124.718,270.113L125,270.393L125.282,270.671L125.563,270.947L125.845,271.22L126.126,271.491L126.408,271.759L126.689,272.025L126.971,272.289L127.252,272.55L127.534,272.809L127.815,273.066L128.097,273.32L128.378,273.572L128.66,273.822L128.941,274.069L129.223,274.314L129.505,274.557L129.786,274.798L130.068,275.037L130.349,275.273L130.631,275.508L130.912,275.74L131.194,275.97L131.475,276.198L131.757,276.424L132.038,276.648L132.32,276.87L132.601,277.089L132.883,277.307L133.164,277.523L133.446,277.737L133.727,277.949L134.009,278.159L134.291,278.367L134.572,278.573L134.854,278.777L135.135,278.979L135.417,279.18L135.698,279.378L135.98,279.575L136.261,279.77L136.543,279.963L136.824,280.154L137.106,280.344L137.387,280.532L137.669,280.718L137.95,280.902L138.232,281.085L138.514,281.266L138.795,281.445L139.077,281.623L139.358,281.799L139.64,281.973L139.921,282.146L140.203,282.317L140.484,282.487L140.766,282.654L141.047,282.821L141.329,282.986L141.61,283.149L141.892,283.311L142.173,283.471L142.455,283.629L142.736,283.787L143.018,283.942L143.3,284.097L143.581,284.25L143.863,284.401L144.144,284.551L144.426,284.7L144.707,284.847L144.989,284.993L145.27,285.137L145.552,285.28L145.833,285.422L146.115,285.562L146.396,285.701L146.678,285.839L146.959,285.975L147.241,286.11L147.523,286.244L147.804,286.377L148.086,286.508L148.367,286.638L148.649,286.767L148.93,286.895L149.212,287.021L149.493,287.147L149.775,287.271L150.056,287.394L150.338,287.515L150.619,287.636L150.901,287.755L151.182,287.874L151.464,287.991L151.745,288.107L152.027,288.222L152.309,288.336L152.59,288.448L152.872,288.56L153.153,288.671L153.435,288.78L153.716,288.889L153.998,288.996L154.279,289.103L154.561,289.208L154.842,289.313L155.124,289.416L155.405,289.519L155.687,289.62L155.968,289.721L156.25,289.82L156.532,289.919L156.813,290.016L157.095,290.113L157.376,290.209L157.658,290.304L157.939,290.398L158.221,290.491L158.502,290.583L158.784,290.674L159.065,290.765L159.347,290.854L159.628,290.943L159.91,291.031L160.191,291.118L160.473,291.204L160.755,291.289L161.036,291.374L161.318,291.458L161.599,291.541L161.881,291.623L162.162,291.704L162.444,291.785L162.725,291.864L163.007,291.943L163.288,292.022L163.57,292.099L163.851,292.176L164.133,292.252L164.414,292.327L164.696,292.402L164.977,292.476L165.259,292.549L165.541,292.621L165.822,292.693L166.104,292.764L166.385,292.834L166.667,292.904L166.948,292.973L167.23,293.041L167.511,293.109L167.793,293.176L168.074,293.242L168.356,293.308L168.637,293.373L168.919,293.438L169.2,293.502L169.482,293.565L169.764,293.627L170.045,293.69L170.327,293.751L170.608,293.812L170.89,293.872L171.171,293.932L171.453,293.991L171.734,294.049L172.016,294.107L172.297,294.165L172.579,294.221L172.86,294.278L173.142,294.333L173.423,294.389L173.705,294.443L173.986,294.497L174.268,294.551L174.55,294.604L174.831,294.657L175.113,294.709L175.394,294.76L175.676,294.811L175.957,294.862L176.239,294.912L176.52,294.962L176.802,295.011L177.083,295.059L177.365,295.108L177.646,295.155L177.928,295.203L178.209,295.249L178.491,295.296L178.773,295.342L179.054,295.387L179.336,295.432L179.617,295.477L179.899,295.521L180.18,295.564L180.462,295.608L180.743,295.65L181.025,295.693L181.306,295.735L181.588,295.777L181.869,295.818L182.151,295.859L182.432,295.899L182.714,295.939L182.995,295.979L183.277,296.018L183.559,296.057L183.84,296.095L184.122,296.133L184.403,296.171L184.685,296.208L184.966,296.245L185.248,296.282L185.529,296.318L185.811,296.354L186.092,296.39L186.374,296.425L186.655,296.46L186.937,296.495L187.218,296.529L187.5,296.563L187.782,296.596L188.063,296.63L188.345,296.663L188.626,296.695L188.908,296.727L189.189,296.759L189.471,296.791L189.752,296.822L190.034,296.853L190.315,296.884L190.597,296.915L190.878,296.945L191.16,296.975L191.441,297.004L191.723,297.033L192.005,297.062L192.286,297.091L192.568,297.12L192.849,297.148L193.131,297.176L193.412,297.203L193.694,297.231L193.975,297.258L194.257,297.284L194.538,297.311L194.82,297.337L195.101,297.363L195.383,297.389L195.664,297.415L195.946,297.44L196.227,297.465L196.509,297.49L196.791,297.514L197.072,297.539L197.354,297.563L197.635,297.586L197.917,297.61L198.198,297.633L198.48,297.657L198.761,297.679L199.043,297.702L199.324,297.725L199.606,297.747L199.887,297.769L200.169,297.791L200.45,297.812L200.732,297.834L201.014,297.855L201.295,297.876L201.577,297.897L201.858,297.917L202.14,297.938L202.421,297.958L202.703,297.978L202.984,297.998L203.266,298.017L203.547,298.037L203.829,298.056L204.11,298.075L204.392,298.094L204.673,298.112L204.955,298.131L205.236,298.149L205.518,298.167L205.8,298.185L206.081,298.203L206.363,298.22L206.644,298.238L206.926,298.255L207.207,298.272L207.489,298.289L207.77,298.306L208.052,298.322L208.333,298.339L208.615,298.355L208.896,298.371L209.178,298.387L209.459,298.403L209.741,298.419L210.023,298.434L210.304,298.449L210.586,298.464L210.867,298.48L211.149,298.494L211.43,298.509L211.712,298.524L211.993,298.538L212.275,298.552L212.556,298.567L212.838,298.581L213.119,298.595L213.401,298.608L213.682,298.622L213.964,298.635L214.245,298.649L214.527,298.662L214.809,298.675L215.09,298.688L215.372,298.701L215.653,298.714L215.935,298.726L216.216,298.739L216.498,298.751L216.779,298.763L217.061,298.775L217.342,298.787L217.624,298.799L217.905,298.811L218.187,298.823L218.468,298.834L218.75,298.846L219.032,298.857L219.313,298.868L219.595,298.879L219.876,298.89L220.158,298.901L220.439,298.912L220.721,298.922L221.002,298.933L221.284,298.943L221.565,298.954L221.847,298.964L222.128,298.974L222.41,298.984L222.691,298.994L222.973,299.004L223.255,299.014L223.536,299.023L223.818,299.033L224.099,299.042L224.381,299.052L224.662,299.061L224.944,299.07L225.225,299.079L225.507,299.088L225.788,299.097L226.07,299.106L226.351,299.115L226.633,299.124L226.914,299.132L227.196,299.141L227.477,299.149L227.759,299.157L228.041,299.166L228.322,299.174L228.604,299.182L228.885,299.19L229.167,299.198L229.448,299.206L229.73,299.214L230.011,299.221L230.293,299.229L230.574,299.236L230.856,299.244L231.137,299.251L231.419,299.259L231.7,299.266L231.982,299.273L232.264,299.28L232.545,299.287L232.827,299.294L233.108,299.301L233.39,299.308L233.671,299.315L233.953,299.322L234.234,299.328L234.516,299.335L234.797,299.341L235.079,299.348L235.36,299.354L235.642,299.36L235.923,299.367L236.205,299.373L236.486,299.379L236.768,299.385L237.05,299.391L237.331,299.397L237.613,299.403L237.894,299.409L238.176,299.415L238.457,299.42L238.739,299.426L239.02,299.432L239.302,299.437L239.583,299.443L239.865,299.448L240.146,299.454L240.428,299.459L240.709,299.464L240.991,299.47L241.273,299.475L241.554,299.48L241.836,299.485L242.117,299.49L242.399,299.495L242.68,299.5L242.962,299.505L243.243,299.51L243.525,299.515L243.806,299.519L244.088,299.524L244.369,299.529L244.651,299.533L244.932,299.538L245.214,299.542L245.495,299.547L245.777,299.551L246.059,299.556L246.34,299.56L246.622,299.564L246.903,299.569L247.185,299.573L247.466,299.577L247.748,299.581L248.029,299.585L248.311,299.589L248.592,299.593L248.874,299.597L249.155,299.601L249.437,299.605L249.718,299.609L250,299.613L250.282,299.617L250.563,299.62L250.845,299.624L251.126,299.628L251.408,299.632L251.689,299.635L251.971,299.639L252.252,299.642L252.534,299.646L252.815,299.649L253.097,299.653L253.378,299.656L253.66,299.659L253.941,299.663L254.223,299.666L254.505,299.669L254.786,299.673L255.068,299.676L255.349,299.679L255.631,299.682L255.912,299.685L256.194,299.688L256.475,299.691L256.757,299.694L257.038,299.697L257.32,299.7L257.601,299.703L257.883,299.706L258.164,299.709L258.446,299.712L258.727,299.715L259.009,299.718L259.291,299.72L259.572,299.723L259.854,299.726L260.135,299.728L260.417,299.731L260.698,299.734L260.98,299.736L261.261,299.739L261.543,299.742L261.824,299.744L262.106,299.747L262.387,299.749L262.669,299.752L262.95,299.754L263.232,299.756L263.514,299.759L263.795,299.761L264.077,299.763L264.358,299.766L264.64,299.768L264.921,299.77L265.203,299.773L265.484,299.775L265.766,299.777L266.047,299.779L266.329,299.781L266.61,299.784L266.892,299.786L267.173,299.788L267.455,299.79L267.736,299.792L268.018,299.794L268.3,299.796L268.581,299.798L268.863,299.8L269.144,299.802L269.426,299.804L269.707,299.806L269.989,299.808L270.27,299.81L270.552,299.811L270.833,299.813L271.115,299.815L271.396,299.817L271.678,299.819L271.959,299.82L272.241,299.822L272.523,299.824L272.804,299.826L273.086,299.827L273.367,299.829L273.649,299.831L273.93,299.832L274.212,299.834L274.493,299.836L274.775,299.837L275.056,299.839L275.338,299.84L275.619,299.842L275.901,299.844L276.182,299.845L276.464,299.847L276.745,299.848L277.027,299.85L277.309,299.851L277.59,299.853L277.872,299.854L278.153,299.855L278.435,299.857L278.716,299.858L278.998,299.86L279.279,299.861L279.561,299.862L279.842,299.864L280.124,299.865L280.405,299.866L280.687,299.868L280.968,299.869L281.25,299.87" stroke="#4c78a8" stroke-width="2"/></g></g><path class="foreground" aria-hidden="true" d="" display="none"/></g><g transform="translate(0,0)"><path class="background" aria-hidden="true" d="M0,0h300v300h-300Z"/><g><g class="mark-line role-mark marks" role="graphics-object" aria-roledescription="line mark container"><path aria-label="index: 0; value: 0; variable: R" role="graphics-symbol" aria-roledescription="line mark" d="M0,300L0.282,299.998L0.563,299.996L0.845,299.994L1.126,299.992L1.408,299.989L1.689,299.987L1.971,299.984L2.252,299.982L2.534,299.979L2.815,299.976L3.097,299.974L3.378,299.971L3.66,299.968L3.941,299.965L4.223,299.961L4.505,299.958L4.786,299.954L5.068,299.951L5.349,299.947L5.631,299.943L5.912,299.939L6.194,299.935L6.475,299.931L6.757,299.926L7.038,299.922L7.32,299.917L7.601,299.912L7.883,299.907L8.164,299.902L8.446,299.896L8.727,299.891L9.009,299.885L9.291,299.879L9.572,299.872L9.854,299.866L10.135,299.859L10.417,299.852L10.698,299.845L10.98,299.838L11.261,299.83L11.543,299.822L11.824,299.814L12.106,299.805L12.387,299.796L12.669,299.787L12.95,299.778L13.232,299.768L13.514,299.758L13.795,299.747L14.077,299.737L14.358,299.725L14.64,299.714L14.921,299.702L15.203,299.689L15.484,299.676L15.766,299.663L16.047,299.649L16.329,299.635L16.61,299.62L16.892,299.605L17.173,299.589L17.455,299.573L17.736,299.556L18.018,299.538L18.3,299.52L18.581,299.501L18.863,299.482L19.144,299.462L19.426,299.441L19.707,299.419L19.989,299.397L20.27,299.374L20.552,299.35L20.833,299.325L21.115,299.3L21.396,299.273L21.678,299.246L21.959,299.218L22.241,299.188L22.523,299.158L22.804,299.127L23.086,299.094L23.367,299.061L23.649,299.026L23.93,298.99L24.212,298.953L24.493,298.915L24.775,298.875L25.056,298.834L25.338,298.792L25.619,298.748L25.901,298.702L26.182,298.655L26.464,298.607L26.745,298.556L27.027,298.504L27.309,298.451L27.59,298.395L27.872,298.337L28.153,298.278L28.435,298.217L28.716,298.153L28.998,298.087L29.279,298.019L29.561,297.949L29.842,297.877L30.124,297.802L30.405,297.724L30.687,297.644L30.968,297.561L31.25,297.476L31.532,297.387L31.813,297.296L32.095,297.201L32.376,297.104L32.658,297.003L32.939,296.899L33.221,296.791L33.502,296.68L33.784,296.566L34.065,296.447L34.347,296.325L34.628,296.198L34.91,296.068L35.191,295.933L35.473,295.794L35.755,295.651L36.036,295.503L36.318,295.35L36.599,295.192L36.881,295.029L37.162,294.861L37.444,294.688L37.725,294.509L38.007,294.325L38.288,294.134L38.57,293.938L38.851,293.736L39.133,293.528L39.414,293.313L39.696,293.092L39.977,292.864L40.259,292.629L40.541,292.386L40.822,292.137L41.104,291.88L41.385,291.616L41.667,291.343L41.948,291.063L42.23,290.774L42.511,290.477L42.793,290.172L43.074,289.858L43.356,289.535L43.637,289.202L43.919,288.861L44.2,288.509L44.482,288.149L44.764,287.778L45.045,287.397L45.327,287.006L45.608,286.604L45.89,286.192L46.171,285.768L46.453,285.334L46.734,284.889L47.016,284.432L47.297,283.963L47.579,283.483L47.86,282.991L48.142,282.487L48.423,281.97L48.705,281.441L48.986,280.9L49.268,280.346L49.55,279.779L49.831,279.199L50.113,278.606L50.394,278L50.676,277.381L50.957,276.748L51.239,276.102L51.52,275.442L51.802,274.769L52.083,274.081L52.365,273.38L52.646,272.666L52.928,271.937L53.209,271.194L53.491,270.438L53.773,269.668L54.054,268.884L54.336,268.086L54.617,267.274L54.899,266.448L55.18,265.609L55.462,264.756L55.743,263.889L56.025,263.009L56.306,262.115L56.588,261.208L56.869,260.288L57.151,259.355L57.432,258.409L57.714,257.45L57.995,256.479L58.277,255.495L58.559,254.499L58.84,253.491L59.122,252.471L59.403,251.44L59.685,250.397L59.966,249.343L60.248,248.278L60.529,247.202L60.811,246.116L61.092,245.02L61.374,243.914L61.655,242.798L61.937,241.673L62.218,240.539L62.5,239.396L62.782,238.245L63.063,237.085L63.345,235.918L63.626,234.743L63.908,233.561L64.189,232.372L64.471,231.176L64.752,229.974L65.034,228.766L65.315,227.552L65.597,226.333L65.878,225.109L66.16,223.88L66.441,222.647L66.723,221.409L67.005,220.168L67.286,218.923L67.568,217.675L67.849,216.424L68.131,215.17L68.412,213.914L68.694,212.656L68.975,211.396L69.257,210.135L69.538,208.872L69.82,207.609L70.101,206.345L70.383,205.081L70.664,203.816L70.946,202.552L71.227,201.288L71.509,200.025L71.791,198.762L72.072,197.501L72.354,196.241L72.635,194.982L72.917,193.726L73.198,192.471L73.48,191.218L73.761,189.968L74.043,188.721L74.324,187.476L74.606,186.235L74.887,184.996L75.169,183.761L75.45,182.529L75.732,181.301L76.014,180.077L76.295,178.857L76.577,177.641L76.858,176.429L77.14,175.222L77.421,174.019L77.703,172.821L77.984,171.628L78.266,170.44L78.547,169.256L78.829,168.078L79.11,166.905L79.392,165.738L79.673,164.576L79.955,163.419L80.236,162.269L80.518,161.123L80.8,159.984L81.081,158.851L81.363,157.723L81.644,156.602L81.926,155.486L82.207,154.377L82.489,153.274L82.77,152.177L83.052,151.087L83.333,150.003L83.615,148.925L83.896,147.854L84.178,146.789L84.459,145.731L84.741,144.68L85.023,143.635L85.304,142.596L85.586,141.564L85.867,140.539L86.149,139.521L86.43,138.509L86.712,137.504L86.993,136.506L87.275,135.514L87.556,134.53L87.838,133.552L88.119,132.581L88.401,131.616L88.682,130.658L88.964,129.707L89.245,128.763L89.527,127.826L89.809,126.895L90.09,125.972L90.372,125.054L90.653,124.144L90.935,123.241L91.216,122.344L91.498,121.453L91.779,120.57L92.061,119.693L92.342,118.823L92.624,117.959L92.905,117.103L93.187,116.252L93.468,115.408L93.75,114.571L94.032,113.741L94.313,112.917L94.595,112.099L94.876,111.288L95.158,110.483L95.439,109.685L95.721,108.893L96.002,108.107L96.284,107.328L96.565,106.555L96.847,105.789L97.128,105.028L97.41,104.274L97.691,103.526L97.973,102.784L98.255,102.048L98.536,101.319L98.818,100.595L99.099,99.878L99.381,99.166L99.662,98.46L99.944,97.761L100.225,97.067L100.507,96.379L100.788,95.696L101.07,95.02L101.351,94.349L101.633,93.684L101.914,93.025L102.196,92.372L102.477,91.723L102.759,91.081L103.041,90.444L103.322,89.813L103.604,89.187L103.885,88.566L104.167,87.951L104.448,87.341L104.73,86.736L105.011,86.137L105.293,85.543L105.574,84.954L105.856,84.371L106.137,83.792L106.419,83.219L106.7,82.65L106.982,82.087L107.264,81.529L107.545,80.975L107.827,80.427L108.108,79.883L108.39,79.344L108.671,78.81L108.953,78.281L109.234,77.756L109.516,77.237L109.797,76.721L110.079,76.211L110.36,75.705L110.642,75.203L110.923,74.707L111.205,74.214L111.486,73.726L111.768,73.243L112.05,72.763L112.331,72.289L112.613,71.818L112.894,71.352L113.176,70.89L113.457,70.432L113.739,69.978L114.02,69.529L114.302,69.083L114.583,68.642L114.865,68.205L115.146,67.771L115.428,67.342L115.709,66.916L115.991,66.495L116.273,66.077L116.554,65.663L116.836,65.253L117.117,64.847L117.399,64.445L117.68,64.046L117.962,63.651L118.243,63.259L118.525,62.872L118.806,62.487L119.088,62.107L119.369,61.73L119.651,61.356L119.932,60.986L120.214,60.619L120.495,60.256L120.777,59.896L121.059,59.539L121.34,59.186L121.622,58.836L121.903,58.489L122.185,58.146L122.466,57.805L122.748,57.468L123.029,57.134L123.311,56.804L123.592,56.476L123.874,56.151L124.155,55.83L124.437,55.511L124.718,55.195L125,54.883L125.282,54.573L125.563,54.266L125.845,53.962L126.126,53.661L126.408,53.363L126.689,53.068L126.971,52.775L127.252,52.485L127.534,52.198L127.815,51.913L128.097,51.632L128.378,51.353L128.66,51.076L128.941,50.802L129.223,50.531L129.505,50.262L129.786,49.996L130.068,49.733L130.349,49.471L130.631,49.213L130.912,48.957L131.194,48.703L131.475,48.451L131.757,48.202L132.038,47.956L132.32,47.712L132.601,47.47L132.883,47.23L133.164,46.993L133.446,46.757L133.727,46.525L134.009,46.294L134.291,46.065L134.572,45.839L134.854,45.615L135.135,45.393L135.417,45.173L135.698,44.955L135.98,44.74L136.261,44.526L136.543,44.314L136.824,44.105L137.106,43.897L137.387,43.692L137.669,43.488L137.95,43.286L138.232,43.086L138.514,42.889L138.795,42.693L139.077,42.499L139.358,42.306L139.64,42.116L139.921,41.927L140.203,41.741L140.484,41.556L140.766,41.372L141.047,41.191L141.329,41.011L141.61,40.833L141.892,40.657L142.173,40.483L142.455,40.31L142.736,40.138L143.018,39.969L143.3,39.801L143.581,39.634L143.863,39.47L144.144,39.307L144.426,39.145L144.707,38.985L144.989,38.826L145.27,38.669L145.552,38.514L145.833,38.36L146.115,38.208L146.396,38.057L146.678,37.907L146.959,37.759L147.241,37.612L147.523,37.467L147.804,37.323L148.086,37.18L148.367,37.039L148.649,36.9L148.93,36.761L149.212,36.624L149.493,36.488L149.775,36.354L150.056,36.221L150.338,36.089L150.619,35.958L150.901,35.829L151.182,35.701L151.464,35.574L151.745,35.448L152.027,35.324L152.309,35.201L152.59,35.079L152.872,34.958L153.153,34.838L153.435,34.72L153.716,34.603L153.998,34.486L154.279,34.371L154.561,34.257L154.842,34.144L155.124,34.033L155.405,33.922L155.687,33.812L155.968,33.704L156.25,33.596L156.532,33.49L156.813,33.384L157.095,33.28L157.376,33.176L157.658,33.074L157.939,32.973L158.221,32.872L158.502,32.773L158.784,32.674L159.065,32.577L159.347,32.48L159.628,32.384L159.91,32.29L160.191,32.196L160.473,32.103L160.755,32.011L161.036,31.92L161.318,31.83L161.599,31.74L161.881,31.652L162.162,31.564L162.444,31.477L162.725,31.391L163.007,31.306L163.288,31.222L163.57,31.139L163.851,31.056L164.133,30.974L164.414,30.893L164.696,30.813L164.977,30.733L165.259,30.655L165.541,30.577L165.822,30.5L166.104,30.423L166.385,30.348L166.667,30.273L166.948,30.198L167.23,30.125L167.511,30.052L167.793,29.98L168.074,29.909L168.356,29.838L168.637,29.768L168.919,29.699L169.2,29.63L169.482,29.562L169.764,29.495L170.045,29.428L170.327,29.362L170.608,29.297L170.89,29.232L171.171,29.168L171.453,29.104L171.734,29.042L172.016,28.979L172.297,28.918L172.579,28.857L172.86,28.796L173.142,28.736L173.423,28.677L173.705,28.618L173.986,28.56L174.268,28.503L174.55,28.446L174.831,28.389L175.113,28.333L175.394,28.278L175.676,28.223L175.957,28.169L176.239,28.115L176.52,28.062L176.802,28.009L177.083,27.957L177.365,27.905L177.646,27.854L177.928,27.804L178.209,27.753L178.491,27.704L178.773,27.655L179.054,27.606L179.336,27.558L179.617,27.51L179.899,27.463L180.18,27.416L180.462,27.369L180.743,27.323L181.025,27.278L181.306,27.233L181.588,27.188L181.869,27.144L182.151,27.1L182.432,27.057L182.714,27.014L182.995,26.972L183.277,26.93L183.559,26.888L183.84,26.847L184.122,26.806L184.403,26.765L184.685,26.725L184.966,26.686L185.248,26.646L185.529,26.607L185.811,26.569L186.092,26.531L186.374,26.493L186.655,26.456L186.937,26.419L187.218,26.382L187.5,26.346L187.782,26.31L188.063,26.274L188.345,26.239L188.626,26.204L188.908,26.169L189.189,26.135L189.471,26.101L189.752,26.068L190.034,26.035L190.315,26.002L190.597,25.969L190.878,25.937L191.16,25.905L191.441,25.873L191.723,25.842L192.005,25.811L192.286,25.78L192.568,25.75L192.849,25.72L193.131,25.69L193.412,25.66L193.694,25.631L193.975,25.602L194.257,25.573L194.538,25.545L194.82,25.517L195.101,25.489L195.383,25.461L195.664,25.434L195.946,25.407L196.227,25.38L196.509,25.354L196.791,25.327L197.072,25.301L197.354,25.276L197.635,25.25L197.917,25.225L198.198,25.2L198.48,25.175L198.761,25.151L199.043,25.126L199.324,25.102L199.606,25.079L199.887,25.055L200.169,25.032L200.45,25.009L200.732,24.986L201.014,24.963L201.295,24.941L201.577,24.918L201.858,24.896L202.14,24.875L202.421,24.853L202.703,24.832L202.984,24.811L203.266,24.79L203.547,24.769L203.829,24.748L204.11,24.728L204.392,24.708L204.673,24.688L204.955,24.668L205.236,24.649L205.518,24.629L205.8,24.61L206.081,24.591L206.363,24.572L206.644,24.554L206.926,24.535L207.207,24.517L207.489,24.499L207.77,24.481L208.052,24.463L208.333,24.446L208.615,24.428L208.896,24.411L209.178,24.394L209.459,24.377L209.741,24.361L210.023,24.344L210.304,24.328L210.586,24.311L210.867,24.295L211.149,24.279L211.43,24.264L211.712,24.248L211.993,24.233L212.275,24.217L212.556,24.202L212.838,24.187L213.119,24.172L213.401,24.158L213.682,24.143L213.964,24.129L214.245,24.114L214.527,24.1L214.809,24.086L215.09,24.073L215.372,24.059L215.653,24.045L215.935,24.032L216.216,24.018L216.498,24.005L216.779,23.992L217.061,23.979L217.342,23.966L217.624,23.954L217.905,23.941L218.187,23.929L218.468,23.916L218.75,23.904L219.032,23.892L219.313,23.88L219.595,23.868L219.876,23.857L220.158,23.845L220.439,23.834L220.721,23.822L221.002,23.811L221.284,23.8L221.565,23.789L221.847,23.778L222.128,23.767L222.41,23.756L222.691,23.746L222.973,23.735L223.255,23.725L223.536,23.714L223.818,23.704L224.099,23.694L224.381,23.684L224.662,23.674L224.944,23.664L225.225,23.655L225.507,23.645L225.788,23.635L226.07,23.626L226.351,23.617L226.633,23.607L226.914,23.598L227.196,23.589L227.477,23.58L227.759,23.571L228.041,23.562L228.322,23.554L228.604,23.545L228.885,23.536L229.167,23.528L229.448,23.52L229.73,23.511L230.011,23.503L230.293,23.495L230.574,23.487L230.856,23.479L231.137,23.471L231.419,23.463L231.7,23.455L231.982,23.448L232.264,23.44L232.545,23.433L232.827,23.425L233.108,23.418L233.39,23.41L233.671,23.403L233.953,23.396L234.234,23.389L234.516,23.382L234.797,23.375L235.079,23.368L235.36,23.361L235.642,23.354L235.923,23.348L236.205,23.341L236.486,23.335L236.768,23.328L237.05,23.322L237.331,23.315L237.613,23.309L237.894,23.303L238.176,23.297L238.457,23.29L238.739,23.284L239.02,23.278L239.302,23.272L239.583,23.267L239.865,23.261L240.146,23.255L240.428,23.249L240.709,23.244L240.991,23.238L241.273,23.232L241.554,23.227L241.836,23.222L242.117,23.216L242.399,23.211L242.68,23.206L242.962,23.2L243.243,23.195L243.525,23.19L243.806,23.185L244.088,23.18L244.369,23.175L244.651,23.17L244.932,23.165L245.214,23.16L245.495,23.155L245.777,23.151L246.059,23.146L246.34,23.141L246.622,23.137L246.903,23.132L247.185,23.128L247.466,23.123L247.748,23.119L248.029,23.114L248.311,23.11L248.592,23.106L248.874,23.102L249.155,23.097L249.437,23.093L249.718,23.089L250,23.085L250.282,23.081L250.563,23.077L250.845,23.073L251.126,23.069L251.408,23.065L251.689,23.061L251.971,23.057L252.252,23.054L252.534,23.05L252.815,23.046L253.097,23.043L253.378,23.039L253.66,23.035L253.941,23.032L254.223,23.028L254.505,23.025L254.786,23.021L255.068,23.018L255.349,23.014L255.631,23.011L255.912,23.008L256.194,23.004L256.475,23.001L256.757,22.998L257.038,22.995L257.32,22.992L257.601,22.989L257.883,22.985L258.164,22.982L258.446,22.979L258.727,22.976L259.009,22.973L259.291,22.97L259.572,22.967L259.854,22.965L260.135,22.962L260.417,22.959L260.698,22.956L260.98,22.953L261.261,22.95L261.543,22.948L261.824,22.945L262.106,22.942L262.387,22.94L262.669,22.937L262.95,22.934L263.232,22.932L263.514,22.929L263.795,22.927L264.077,22.924L264.358,22.922L264.64,22.919L264.921,22.917L265.203,22.915L265.484,22.912L265.766,22.91L266.047,22.908L266.329,22.905L266.61,22.903L266.892,22.901L267.173,22.898L267.455,22.896L267.736,22.894L268.018,22.892L268.3,22.89L268.581,22.888L268.863,22.885L269.144,22.883L269.426,22.881L269.707,22.879L269.989,22.877L270.27,22.875L270.552,22.873L270.833,22.871L271.115,22.869L271.396,22.867L271.678,22.865L271.959,22.863L272.241,22.862L272.523,22.86L272.804,22.858L273.086,22.856L273.367,22.854L273.649,22.853L273.93,22.851L274.212,22.849L274.493,22.847L274.775,22.846L275.056,22.844L275.338,22.842L275.619,22.84L275.901,22.839L276.182,22.837L276.464,22.836L276.745,22.834L277.027,22.832L277.309,22.831L277.59,22.829L277.872,22.828L278.153,22.826L278.435,22.825L278.716,22.823L278.998,22.822L279.279,22.82L279.561,22.819L279.842,22.817L280.124,22.816L280.405,22.814L280.687,22.813L280.968,22.812L281.25,22.81" stroke="#f58518" stroke-width="2"/></g></g><path class="foreground" aria-hidden="true" d="" display="none"/></g></g><g class="mark-group role-legend" role="graphics-symbol" aria-roledescription="legend" aria-label="Symbol legend titled 'Compartiments' for stroke color with 3 values: I, R, S"><g transform="translate(318,0)"><path class="background" aria-hidden="true" d="M0,0h81v53h-81Z" pointer-events="none"/><g><g class="mark-group role-legend-entry"><g transform="translate(0,16)"><path class="background" aria-hidden="true" d="M0,0h0v0h0Z" pointer-events="none"/><g><g class="mark-group role-scope" role="graphics-object" aria-roledescription="group mark container"><g transform="translate(0,0)"><path class="background" aria-hidden="true" d="M0,0h23.2216796875v11h-23.2216796875Z" pointer-events="none" opacity="1"/><g><g class="mark-symbol role-legend-symbol" pointer-events="none"><path transform="translate(6,6)" d="M-5,0L5,0" stroke="#4c78a8" stroke-width="1.5" opacity="1"/></g><g class="mark-text role-legend-label" pointer-events="none"><text text-anchor="start" transform="translate(16,9)" font-family="sans-serif" font-size="10px" fill="#000" opacity="1">I</text></g></g><path class="foreground" aria-hidden="true" d="" pointer-events="none" display="none"/></g><g transform="translate(0,13)"><path class="background" aria-hidden="true" d="M0,0h23.2216796875v11h-23.2216796875Z" pointer-events="none" opacity="1"/><g><g class="mark-symbol role-legend-symbol" pointer-events="none"><path transform="translate(6,6)" d="M-5,0L5,0" stroke="#f58518" stroke-width="1.5" opacity="1"/></g><g class="mark-text role-legend-label" pointer-events="none"><text text-anchor="start" transform="translate(16,9)" font-family="sans-serif" font-size="10px" fill="#000" opacity="1">R</text></g></g><path class="foreground" aria-hidden="true" d="" pointer-events="none" display="none"/></g><g transform="translate(0,26)"><path class="background" aria-hidden="true" d="M0,0h23.2216796875v11h-23.2216796875Z" pointer-events="none" opacity="1"/><g><g class="mark-symbol role-legend-symbol" pointer-events="none"><path transform="translate(6,6)" d="M-5,0L5,0" stroke="#e45756" stroke-width="1.5" opacity="1"/></g><g class="mark-text role-legend-label" pointer-events="none"><text text-anchor="start" transform="translate(16,9)" font-family="sans-serif" font-size="10px" fill="#000" opacity="1">S</text></g></g><path class="foreground" aria-hidden="true" d="" pointer-events="none" display="none"/></g></g></g><path class="foreground" aria-hidden="true" d="" pointer-events="none" display="none"/></g></g><g class="mark-text role-legend-title" pointer-events="none"><text text-anchor="start" transform="translate(0,9)" font-family="sans-serif" font-size="11px" font-weight="bold" fill="#000" opacity="1">Compartiments</text></g></g><path class="foreground" aria-hidden="true" d="" pointer-events="none" display="none"/></g></g></g><path class="foreground" aria-hidden="true" d="" display="none"/></g></g></g></svg>