<svg xmlns="http://www.w3.org/2000/svg" xmlns:xlink="http://www.w3.org/1999/xlink" version="1.1" class="marks" width="404" height="347" viewBox="0 0 404 347"><rect width="404" height="347" fill="white"/><g fill="none" stroke-miterlimit="10" transform="translate(41,10)"><g class="mark-group role-frame root" role="graphics-object" aria-roledescription="group mark container"><g transform="translate(0,0)"><path class="background" aria-hidden="true" d="M0.5,0.5h300v300h-300Z" stroke="#ddd"/><g><g class="mark-group role-axis" aria-hidden="true"><g transform="translate(0.5,300.5)"><path class="background" aria-hidden="true" d="M0,0h0v0h0Z" pointer-events="none"/><g><g class="mark-rule role-axis-grid" pointer-events="none"><line transform="translate(0,-300)" x2="0" y2="300" stroke="#ddd" stroke-width="1" opacity="1"/><line transform="translate(30,-300)" x2="0" y2="300" stroke="#ddd" stroke-width="1" opacity="1"/><line transform="translate(60,-300)" x2="0" y2="300" stroke="#ddd" stroke-width="1" opacity="1"/><line transform="translate(90,-300)" x2="0" y2="300" stroke="#ddd" stroke-width="1" opacity="1"/><line transform="translate(120,-300)" x2="0" y2="300" stroke="#ddd" stroke-width="1" opacity="1"/><line transform="translate(150,-300)" x2="0" y2="300" stroke="#ddd" stroke-width="1" opacity="1"/><line transform="translate(180,-300)" x2="0" y2="300" stroke="#ddd" stroke-width="1" opacity="1"/><line transform="translate(210,-300)" x2="0" y2="300" stroke="#ddd" stroke-width="1" opacity="1"/><line transform="translate(240,-300)" x2="0" y2="300" stroke="#ddd" stroke-width="1" opacity="1"/><line transform="translate(270,-300)" x2="0" y2="300" stroke="#ddd" stroke-width="1" opacity="1"/><line transform="translate(300,-300)" x2="0" y2="300" stroke="#ddd" stroke-width="1" opacity="1"/></g></g><path class="foreground" aria-hidden="true" d="" pointer-events="none" display="none"/></g></g><g class="mark-group role-axis" aria-hidden="true"><g transform="translate(0.5,0.5)"><path class="background" aria-hidden="true" d="M0,0h0v0h0Z" pointer-events="none"/><g><g class="mark-rule role-axis-grid" pointer-events="none"><line transform="translate(0,300)" x2="300" y2="0" stroke="#ddd" stroke-width="1" opacity="1"/><line transform="translate(0,273)" x2="300" y2="0" stroke="#ddd" stroke-width="1" opacity="1"/><line transform="translate(0,245)" x2="300" y2="0" stroke="#ddd" stroke-width="1" opacity="1"/><line transform="translate(0,218)" x2="300" y2="0" stroke="#ddd" stroke-width="1" opacity="1"/><line transform="translate(0,191)" x2="300" y2="0" stroke="#ddd" stroke-width="1" opacity="1"/><line transform="translate(0,164)" x2="300" y2="0" stroke="#ddd" stroke-width="1" opacity="1"/><line transform="translate(0,136)" x2="300" y2="0" stroke="#ddd" stroke-width="1" opacity="1"/><line transform="translate(0,109)" x2="300" y2="0" stroke="#ddd" stroke-width="1" opacity="1"/><line transform="translate(0,82)" x2="300" y2="0" stroke="#ddd" stroke-width="1" opacity="1"/><line transform="translate(0,55)" x2="300" y2="0" stroke="#ddd" stroke-width="1" opacity="1"/><line transform="translate(0,27)" x2="300" y2="0" stroke="#ddd" stroke-width="1" opacity="1"/><line transform="translate(0,0)" x2="300" y2="0" stroke="#ddd" stroke-width="1" opacity="1"/></g></g><path class="foreground" aria-hidden="true" d="" pointer-events="none" display="none"/></g></g><g class="mark-group role-axis" role="graphics-symbol" aria-roledescription="axis" aria-label="X-axis titled 'Temps (jours)' for a linear scale with values from 0 to 100"><g transform="translate(0.5,300.5)"><path class="background" aria-hidden="true" d="M0,0h0v0h0Z" pointer-events="none"/><g><g class="mark-rule role-axis-tick" pointer-events="none"><line transform="translate(0,0)" x2="0" y2="5" stroke="#888" stroke-width="1" opacity="1"/><line transform="translate(30,0)" x2="0" y2="5" stroke="#888" stroke-width="1" opacity="1"/><line transform="translate(60,0)" x2="0" y2="5" stroke="#888" stroke-width="1" opacity="1"/><line transform="translate(90,0)" x2="0" y2="5" stroke="#888" stroke-width="1" opacity="1"/><line transform="translate(120,0)" x2="0" y2="5" stroke="#888" stroke-width="1" opacity="1"/><line transform="translate(150,0)" x2="0" y2="5" stroke="#888" stroke-width="1" opacity="1"/><line transform="translate(180,0)" x2="0" y2="5" stroke="#888" stroke-width="1" opacity="1"/><line transform="translate(210,0)" x2="0" y2="5" stroke="#888" stroke-width="1" opacity="1"/><line transform="translate(240,0)" x2="0" y2="5" stroke="#888" stroke-width="1" opacity="1"/><line transform="translate(270,0)" x2="0" y2="5" stroke="#888" stroke-width="1" opacity="1"/><line transform="translate(300,0)" x2="0" y2="5" stroke="#888" stroke-width="1" opacity="1"/></g><g class="mark-text role-axis-label" pointer-events="none"><text text-anchor="start" transform="translate(0,15)" font-family="sans-serif" font-size="10px" fill="#000" opacity="1">0</text><text text-anchor="middle" transform="translate(30,15)" font-family="sans-serif" font-size="10px" fill="#000" opacity="1">10</text><text text-anchor="middle" transform="translate(60,15)" font-family="sans-serif" font-size="10px" fill="#000" opacity="1">20</text><text text-anchor="middle" transform="translate(90,15)" font-family="sans-serif" font-size="10px" fill="#000" opacity="1">30</text><text text-anchor="middle" transform="translate(120,15)" font-family="sans-serif" font-size="10px" fill="#000" opacity="1">40</text><text text-anchor="middle" transform="translate(150,15)" font-family="sans-serif" font-size="10px" fill="#000" opacity="1">50</text><text text-anchor="middle" transform="translate(180,15)" font-family="sans-serif" font-size="10px" fill="#000" opacity="1">60</text><text text-anchor="middle" transform="translate(210,15)" font-family="sans-serif" font-size="10px" fill="#000" opacity="1">70</text><text text-anchor="middle" transform="translate(240,15)" font-family="sans-serif" font-size="10px" fill="#000" opacity="1">80</text><text text-anchor="middle" transform="translate(270,15)" font-family="sans-serif" font-size="10px" fill="#000" opacity="1">90</text><text text-anchor="end" transform="translate(300,15)" font-family="sans-serif" font-size="10px" fill="#000" opacity="1">100</text></g><g class="mark-rule role-axis-domain" pointer-events="none"><line transform="translate(0,0)" x2="300" y2="0" stroke="#888" stroke-width="1" opacity="1"/></g><g class="mark-text role-axis-title" pointer-events="none"><text text-anchor="middle" transform="translate(150,30)" font-family="sans-serif" font-size="11px" font-weight="bold" fill="#000" opacity="1">Temps (jours)</text></g></g><path class="foreground" aria-hidden="true" d="" pointer-events="none" display="none"/></g></g><g class="mark-group role-axis" role="graphics-symbol" aria-roledescription="axis" aria-label="Y-axis titled 'Infectes (millions)' for a linear scale with values from 0 to 6"><g transform="translate(0.5,0.5)"><path class="background" aria-hidden="true" d="M0,0h0v0h0Z" pointer-events="none"/><g><g class="mark-rule role-axis-tick" pointer-events="none"><line transform="translate(0,300)" x2="-5" y2="0" stroke="#888" stroke-width="1" opacity="1"/><line transform="translate(0,273)" x2="-5" y2="0" stroke="#888" stroke-width="1" opacity="1"/><line transform="translate(0,245)" x2="-5" y2="0" stroke="#888" stroke-width="1" opacity="1"/><line transform="translate(0,218)" x2="-5" y2="0" stroke="#888" stroke-width="1" opacity="1"/><line transform="translate(0,191)" x2="-5" y2="0" stroke="#888" stroke-width="1" opacity="1"/><line transform="translate(0,164)" x2="-5" y2="0" stroke="#888" stroke-width="1" opacity="1"/><line transform="translate(0,136)" x2="-5" y2="0" stroke="#888" stroke-width="1" opacity="1"/><line transform="translate(0,109)" x2="-5" y2="0" stroke="#888" stroke-width="1" opacity="1"/><line transform="translate(0,82)" x2="-5" y2="0" stroke="#888" stroke-width="1" opacity="1"/><line transform="translate(0,55)" x2="-5" y2="0" stroke="#888" stroke-width="1" opacity="1"/><line transform="translate(0,27)" x2="-5" y2="0" stroke="#888" stroke-width="1" opacity="1"/><line transform="translate(0,0)" x2="-5" y2="0" stroke="#888" stroke-width="1" opacity="1"/></g><g class="mark-text role-axis-label" pointer-events="none"><text text-anchor="end" transform="translate(-7,303)" font-family="sans-serif" font-size="10px" fill="#000" opacity="1">0.0</text><text text-anchor="end" transform="translate(-7,275.7272727272727)" font-family="sans-serif" font-size="10px" fill="#000" opacity="1">0.5</text><text text-anchor="end" transform="translate(-7,248.45454545454544)" font-family="sans-serif" font-size="10px" fill="#000" opacity="1">1.0</text><text text-anchor="end" transform="translate(-7,221.1818181818182)" font-family="sans-serif" font-size="10px" fill="#000" opacity="1">1.5</text><text text-anchor="end" transform="translate(-7,193.9090909090909)" font-family="sans-serif" font-size="10px" fill="#000" opacity="1">2.0</text><text text-anchor="end" transform="translate(-7,166.63636363636363)" font-family="sans-serif" font-size="10px" fill="#000" opacity="1">2.5</text><text text-anchor="end" transform="translate(-7,139.36363636363637)" font-family="sans-serif" font-size="10px" fill="#000" opacity="1">3.0</text><text text-anchor="end" transform="translate(-7,112.0909090909091)" font-family="sans-serif" font-size="10px" fill="#000" opacity="1">3.5</text><text text-anchor="end" transform="translate(-7,84.81818181818181)" font-family="sans-serif" font-size="10px" fill="#000" opacity="1">4.0</text><text text-anchor="end" transform="translate(-7,57.54545454545453)" font-family="sans-serif" font-size="10px" fill="#000" opacity="1">4.5</text><text text-anchor="end" transform="translate(-7,30.27272727272728)" font-family="sans-serif" font-size="10px" fill="#000" opacity="1">5.0</text><text text-anchor="end" transform="translate(-7,3)" font-family="sans-serif" font-size="10px" fill="#000" opacity="1">5.5</text></g><g class="mark-rule role-axis-domain" pointer-events="none"><line transform="translate(0,300)" x2="0" y2="-300" stroke="#888" stroke-width="1" opacity="1"/></g><g class="mark-text role-axis-title" pointer-events="none"><text text-anchor="middle" transform="translate(-24.9013671875,150) rotate(-90) translate(0,-2)" font-family="sans-serif" font-size="11px" font-weight="bold" fill="#000" opacity="1">Infectes (millions)</text></g></g><path class="foreground" aria-hidden="true" d="" pointer-events="none" display="none"/></g></g><g class="mark-group role-scope pathgroup" role="graphics-object" aria-roledescription="group mark container"><g transform="translate(0,0)"><path class="background" aria-hidden="true" d="M0,0h300v300h-300Z"/><g><g class="mark-line role-mark marks" role="graphics-object" aria-roledescription="line mark container"><path aria-label="index: 0; value: 0.005; b: 0" role="graphics-symbol" aria-roledescription="line mark" d="M0,299.727L1.5,299.737L3,299.746L4.5,299.754L6,299.763L7.5,299.771L9,299.779L10.5,299.787L12,299.794L13.5,299.801L15,299.808L16.5,299.814L18,299.821L19.5,299.827L21,299.833L22.5,299.839L24,299.844L25.5,299.85L27,299.855L28.5,299.86L30,299.865L31.5,299.869L33,299.874L34.5,299.878L36,299.882L37.5,299.886L39,299.89L40.5,299.894L42,299.898L43.5,299.901L45,299.905L46.5,299.908L48,299.911L49.5,299.914L51,299.917L52.5,299.92L54,299.923L55.5,299.925L57,299.928L58.5,299.93L60,299.933L61.5,299.935L63,299.937L64.5,299.939L66,299.942L67.5,299.944L69,299.945L70.5,299.947L72,299.949L73.5,299.951L75,299.953L76.5,299.954L78,299.956L79.5,299.957L81,299.959L82.5,299.96L84,299.962L85.5,299.963L87,299.964L88.5,299.965L90,299.967L91.5,299.968L93,299.969L94.5,299.97L96,299.971L97.5,299.972L99,299.973L100.5,299.974L102,299.975L103.5,299.976L105,299.976L106.5,299.977L108,299.978L109.5,299.979L111,299.98L112.5,299.98L114,299.981L115.5,299.982L117,299.982L118.5,299.983L120,299.983L121.5,299.984L123,299.985L124.5,299.985L126,299.986L127.5,299.986L129,299.987L130.5,299.987L132,299.987L133.5,299.988L135,299.988L136.5,299.989L138,299.989L139.5,299.989L141,299.99L142.5,299.99L144,299.991L145.5,299.991L147,299.991L148.5,299.991L150,299.992L151.5,299.992L153,299.992L154.5,299.993L156,299.993L157.5,299.993L159,299.993L160.5,299.994L162,299.994L163.5,299.994L165,299.994L166.5,299.994L168,299.995L169.5,299.995L171,299.995L172.5,299.995L174,299.995L175.5,299.995L177,299.996L178.5,299.996L180,299.996L181.5,299.996L183,299.996L184.5,299.996L186,299.996L187.5,299.997L189,299.997L190.5,299.997L192,299.997L193.5,299.997L195,299.997L196.5,299.997L198,299.997L199.5,299.997L201,299.997L202.5,299.998L204,299.998L205.5,299.998L207,299.998L208.5,299.998L210,299.998L211.5,299.998L213,299.998L214.5,299.998L216,299.998L217.5,299.998L219,299.998L220.5,299.998L222,299.998L223.5,299.999L225,299.999L226.5,299.999L228,299.999L229.5,299.999L231,299.999L232.5,299.999L234,299.999L235.5,299.999L237,299.999L238.5,299.999L240,299.999L241.5,299.999L243,299.999L244.5,299.999L246,299.999L247.5,299.999L249,299.999L250.5,299.999L252,299.999L253.5,299.999L255,299.999L256.5,299.999L258,299.999L259.5,299.999L261,299.999L262.5,299.999L264,299.999L265.5,299.999L267,299.999L268.5,299.999L270,299.999L271.5,300L273,300L274.5,300L276,300L277.5,300L279,300L280.5,300L282,300L283.5,300L285,300L286.5,300L288,300L289.5,300L291,300L292.5,300L294,300L295.5,300L297,300L298.5,300L300,300" stroke="rgb(207, 225, 242)" stroke-width="2"/></g></g><path class="foreground" aria-hidden="true" d="" display="none"/></g><g transform="translate(0,0)"><path class="background" aria-hidden="true" d="M0,0h300v300h-300Z"/><g><g class="mark-line role-mark marks" role="graphics-object" aria-roledescription="line mark container"><path aria-label="index: 0; value: 0.005; b: 0.0111111111111" role="graphics-symbol" aria-roledescription="line mark" d="M0,299.727L1.5,299.725L3,299.724L4.5,299.722L6,299.72L7.5,299.718L9,299.716L10.5,299.714L12,299.712L13.5,299.71L15,299.708L16.5,299.707L18,299.705L19.5,299.703L21,299.701L22.5,299.699L24,299.697L25.5,299.695L27,299.693L28.5,299.691L30,299.688L31.5,299.686L33,299.684L34.5,299.682L36,299.68L37.5,299.678L39,299.676L40.5,299.674L42,299.671L43.5,299.669L45,299.667L46.5,299.665L48,299.663L49.5,299.66L51,299.658L52.5,299.656L54,299.654L55.5,299.651L57,299.649L58.5,299.647L60,299.644L61.5,299.642L63,299.64L64.5,299.637L66,299.635L67.5,299.632L69,299.63L70.5,299.627L72,299.625L73.5,299.622L75,299.62L76.5,299.617L78,299.615L79.5,299.612L81,299.61L82.5,299.607L84,299.605L85.5,299.602L87,299.599L88.5,299.597L90,299.594L91.5,299.591L93,299.589L94.5,299.586L96,299.583L97.5,299.581L99,299.578L100.5,299.575L102,299.572L103.5,299.569L105,299.567L106.5,299.564L108,299.561L109.5,299.558L111,299.555L112.5,299.552L114,299.549L115.5,299.546L117,299.543L118.5,299.54L120,299.537L121.5,299.534L123,299.531L124.5,299.528L126,299.525L127.5,299.522L129,299.519L130.5,299.516L132,299.512L133.5,299.509L135,299.506L136.5,299.503L138,299.499L139.5,299.496L141,299.493L142.5,299.49L144,299.486L145.5,299.483L147,299.479L148.5,299.476L150,299.473L151.5,299.469L153,299.466L154.5,299.462L156,299.459L157.5,299.455L159,299.452L160.5,299.448L162,299.445L163.5,299.441L165,299.437L166.5,299.434L168,299.43L169.5,299.426L171,299.423L172.5,299.419L174,299.415L175.5,299.411L177,299.407L178.5,299.404L180,299.4L181.5,299.396L183,299.392L184.5,299.388L186,299.384L187.5,299.38L189,299.376L190.5,299.372L192,299.368L193.5,299.364L195,299.36L196.5,299.356L198,299.351L199.5,299.347L201,299.343L202.5,299.339L204,299.335L205.5,299.33L207,299.326L208.5,299.322L210,299.317L211.5,299.313L213,299.309L214.5,299.304L216,299.3L217.5,299.295L219,299.291L220.5,299.286L222,299.282L223.5,299.277L225,299.272L226.5,299.268L228,299.263L229.5,299.258L231,299.254L232.5,299.249L234,299.244L235.5,299.239L237,299.234L238.5,299.229L240,299.225L241.5,299.22L243,299.215L244.5,299.21L246,299.205L247.5,299.2L249,299.195L250.5,299.189L252,299.184L253.5,299.179L255,299.174L256.5,299.169L258,299.163L259.5,299.158L261,299.153L262.5,299.148L264,299.142L265.5,299.137L267,299.131L268.5,299.126L270,299.12L271.5,299.115L273,299.109L274.5,299.104L276,299.098L277.5,299.092L279,299.087L280.5,299.081L282,299.075L283.5,299.069L285,299.064L286.5,299.058L288,299.052L289.5,299.046L291,299.04L292.5,299.034L294,299.028L295.5,299.022L297,299.016L298.5,299.01L300,299.004" stroke="rgb(188, 215, 235)" stroke-width="2"/></g></g><path class="foreground" aria-hidden="true" d="" display="none"/></g><g transform="translate(0,0)"><path class="background" aria-hidden="true" d="M0,0h300v300h-300Z"/><g><g class="mark-line role-mark marks" role="graphics-object" aria-roledescription="line mark container"><path aria-label="index: 0; value: 0.005; b: 0.0222222222222" role="graphics-symbol" aria-roledescription="line mark" d="M0,299.727L1.5,299.714L3,299.7L4.5,299.685L6,299.669L7.5,299.653L9,299.636L10.5,299.618L12,299.599L13.5,299.579L15,299.558L16.5,299.536L18,299.513L19.5,299.489L21,299.464L22.5,299.437L24,299.409L25.5,299.38L27,299.35L28.5,299.318L30,299.284L31.5,299.249L33,299.211L34.5,299.173L36,299.132L37.5,299.089L39,299.044L40.5,298.997L42,298.948L43.5,298.896L45,298.841L46.5,298.785L48,298.725L49.5,298.662L51,298.596L52.5,298.527L54,298.455L55.5,298.379L57,298.3L58.5,298.217L60,298.13L61.5,298.038L63,297.942L64.5,297.842L66,297.736L67.5,297.626L69,297.51L70.5,297.389L72,297.262L73.5,297.129L75,296.99L76.5,296.844L78,296.691L79.5,296.531L81,296.363L82.5,296.188L84,296.004L85.5,295.812L87,295.611L88.5,295.4L90,295.18L91.5,294.95L93,294.709L94.5,294.457L96,294.194L97.5,293.918L99,293.631L100.5,293.33L102,293.016L103.5,292.688L105,292.345L106.5,291.988L108,291.615L109.5,291.226L111,290.819L112.5,290.396L114,289.955L115.5,289.495L117,289.016L118.5,288.517L120,287.998L121.5,287.457L123,286.895L124.5,286.311L126,285.704L127.5,285.073L129,284.418L130.5,283.738L132,283.033L133.5,282.303L135,281.546L136.5,280.762L138,279.95L139.5,279.111L141,278.244L142.5,277.349L144,276.425L145.5,275.472L147,274.49L148.5,273.479L150,272.438L151.5,271.369L153,270.271L154.5,269.144L156,267.989L157.5,266.807L159,265.597L160.5,264.361L162,263.099L163.5,261.812L165,260.502L166.5,259.169L168,257.815L169.5,256.441L171,255.049L172.5,253.641L174,252.219L175.5,250.784L177,249.338L178.5,247.884L180,246.424L181.5,244.961L183,243.497L184.5,242.034L186,240.576L187.5,239.125L189,237.685L190.5,236.257L192,234.844L193.5,233.451L195,232.079L196.5,230.731L198,229.411L199.5,228.121L201,226.863L202.5,225.642L204,224.458L205.5,223.316L207,222.216L208.5,221.161L210,220.154L211.5,219.196L213,218.29L214.5,217.436L216,216.636L217.5,215.892L219,215.204L220.5,214.574L222,214.002L223.5,213.489L225,213.035L226.5,212.641L228,212.306L229.5,212.03L231,211.813L232.5,211.654L234,211.553L235.5,211.509L237,211.521L238.5,211.589L240,211.71L241.5,211.884L243,212.109L244.5,212.384L246,212.707L247.5,213.077L249,213.493L250.5,213.951L252,214.452L253.5,214.992L255,215.571L256.5,216.186L258,216.835L259.5,217.517L261,218.23L262.5,218.972L264,219.741L265.5,220.536L267,221.355L268.5,222.195L270,223.056L271.5,223.936L273,224.833L274.5,225.745L276,226.671L277.5,227.61L279,228.56L280.5,229.52L282,230.488L283.5,231.463L285,232.444L286.5,233.43L288,234.419L289.5,235.411L291,236.404L292.5,237.398L294,238.391L295.5,239.383L297,240.373L298.5,241.359L300,242.342" stroke="rgb(162, 203, 227)" stroke-width="2"/></g></g><path class="foreground" aria-hidden="true" d="" display="none"/></g><g transform="translate(0,0)"><path class="background" aria-hidden="true" d="M0,0h300v300h-300Z"/><g><g class="mark-line role-mark marks" role="graphics-object" aria-roledescription="line mark container"><path aria-label="index: 0; value: 0.005; b: 0.0333333333333" role="graphics-symbol" aria-roledescription="line mark" d="M0,299.727L1.5,299.702L3,299.673L4.5,299.643L6,299.609L7.5,299.572L9,299.532L10.5,299.488L12,299.44L13.5,299.387L15,299.33L16.5,299.267L18,299.198L19.5,299.122L21,299.04L22.5,298.95L24,298.852L25.5,298.744L27,298.626L28.5,298.498L30,298.357L31.5,298.203L33,298.035L34.5,297.852L36,297.652L37.5,297.433L39,297.194L40.5,296.933L42,296.649L43.5,296.338L45,295.999L46.5,295.63L48,295.227L49.5,294.788L51,294.31L52.5,293.789L54,293.222L55.5,292.605L57,291.935L58.5,291.206L60,290.414L61.5,289.555L63,288.623L64.5,287.613L66,286.52L67.5,285.337L69,284.059L70.5,282.68L72,281.193L73.5,279.593L75,277.872L76.5,276.024L78,274.045L79.5,271.927L81,269.666L82.5,267.257L84,264.695L85.5,261.979L87,259.104L88.5,256.072L90,252.881L91.5,249.535L93,246.037L94.5,242.392L96,238.609L97.5,234.697L99,230.669L100.5,226.539L102,222.322L103.5,218.038L105,213.708L106.5,209.353L108,204.997L109.5,200.665L111,196.382L112.5,192.174L114,188.067L115.5,184.086L117,180.255L118.5,176.597L120,173.133L121.5,169.883L123,166.862L124.5,164.086L126,161.565L127.5,159.309L129,157.323L130.5,155.612L132,154.175L133.5,153.013L135,152.12L136.5,151.491L138,151.119L139.5,150.994L141,151.107L142.5,151.447L144,152.001L145.5,152.756L147,153.7L148.5,154.819L150,156.1L151.5,157.531L153,159.097L154.5,160.787L156,162.587L157.5,164.487L159,166.475L160.5,168.54L162,170.672L163.5,172.861L165,175.099L166.5,177.376L168,179.686L169.5,182.02L171,184.372L172.5,186.735L174,189.104L175.5,191.474L177,193.839L178.5,196.196L180,198.541L181.5,200.869L183,203.178L184.5,205.465L186,207.726L187.5,209.961L189,212.166L190.5,214.341L192,216.483L193.5,218.592L195,220.666L196.5,222.703L198,224.705L199.5,226.669L201,228.595L202.5,230.484L204,232.334L205.5,234.145L207,235.919L208.5,237.653L210,239.35L211.5,241.008L213,242.629L214.5,244.212L216,245.757L217.5,247.266L219,248.738L220.5,250.175L222,251.576L223.5,252.942L225,254.274L226.5,255.572L228,256.836L229.5,258.068L231,259.268L232.5,260.437L234,261.575L235.5,262.682L237,263.761L238.5,264.81L240,265.83L241.5,266.824L243,267.79L244.5,268.729L246,269.643L247.5,270.531L249,271.395L250.5,272.235L252,273.051L253.5,273.845L255,274.616L256.5,275.365L258,276.093L259.5,276.801L261,277.488L262.5,278.155L264,278.804L265.5,279.434L267,280.046L268.5,280.64L270,281.217L271.5,281.777L273,282.321L274.5,282.85L276,283.362L277.5,283.86L279,284.344L280.5,284.813L282,285.268L283.5,285.711L285,286.14L286.5,286.556L288,286.96L289.5,287.353L291,287.733L292.5,288.103L294,288.461L295.5,288.809L297,289.147L298.5,289.474L300,289.792" stroke="rgb(134, 188, 220)" stroke-width="2"/></g></g><path class="foreground" aria-hidden="true" d="" display="none"/></g><g transform="translate(0,0)"><path class="background" aria-hidden="true" d="M0,0h300v300h-300Z"/><g><g class="mark-line role-mark marks" role="graphics-object" aria-roledescription="line mark container"><path aria-label="index: 0; value: 0.005; b: 0.0444444444444" role="graphics-symbol" aria-roledescription="line mark" d="M0,299.727L1.5,299.689L3,299.645L4.5,299.595L6,299.538L7.5,299.473L9,299.399L10.5,299.315L12,299.219L13.5,299.109L15,298.984L16.5,298.842L18,298.679L19.5,298.494L21,298.283L22.5,298.043L24,297.77L25.5,297.459L27,297.105L28.5,296.703L30,296.245L31.5,295.725L33,295.134L34.5,294.463L36,293.702L37.5,292.84L39,291.863L40.5,290.759L42,289.51L43.5,288.101L45,286.514L46.5,284.728L48,282.723L49.5,280.476L51,277.965L52.5,275.165L54,272.053L55.5,268.606L57,264.801L58.5,260.619L60,256.043L61.5,251.062L63,245.669L64.5,239.866L66,233.663L67.5,227.079L69,220.146L70.5,212.904L72,205.409L73.5,197.724L75,189.924L76.5,182.092L78,174.315L79.5,166.684L81,159.29L82.5,152.22L84,145.555L85.5,139.366L87,133.713L88.5,128.643L90,124.191L91.5,120.378L93,117.211L94.5,114.688L96,112.793L97.5,111.506L99,110.795L100.5,110.627L102,110.964L103.5,111.763L105,112.985L106.5,114.586L108,116.527L109.5,118.767L111,121.268L112.5,123.997L114,126.918L115.5,130.003L117,133.223L118.5,136.552L120,139.968L121.5,143.45L123,146.979L124.5,150.538L126,154.114L127.5,157.693L129,161.263L130.5,164.815L132,168.34L133.5,171.831L135,175.281L136.5,178.684L138,182.036L139.5,185.333L141,188.572L142.5,191.75L144,194.864L145.5,197.914L147,200.898L148.5,203.815L150,206.665L151.5,209.447L153,212.16L154.5,214.807L156,217.386L157.5,219.898L159,222.344L160.5,224.725L162,227.041L163.5,229.294L165,231.484L166.5,233.613L168,235.682L169.5,237.691L171,239.643L172.5,241.538L174,243.378L175.5,245.163L177,246.896L178.5,248.577L180,250.208L181.5,251.79L183,253.324L184.5,254.812L186,256.254L187.5,257.652L189,259.007L190.5,260.32L192,261.593L193.5,262.827L195,264.022L196.5,265.18L198,266.301L199.5,267.388L201,268.44L202.5,269.46L204,270.447L205.5,271.403L207,272.328L208.5,273.225L210,274.093L211.5,274.933L213,275.747L214.5,276.534L216,277.297L217.5,278.035L219,278.75L220.5,279.441L222,280.111L223.5,280.759L225,281.386L226.5,281.992L228,282.58L229.5,283.148L231,283.698L232.5,284.231L234,284.746L235.5,285.244L237,285.726L238.5,286.193L240,286.645L241.5,287.082L243,287.504L244.5,287.913L246,288.309L247.5,288.692L249,289.062L250.5,289.421L252,289.767L253.5,290.103L255,290.427L256.5,290.741L258,291.045L259.5,291.338L261,291.622L262.5,291.897L264,292.163L265.5,292.42L267,292.669L268.5,292.91L270,293.143L271.5,293.368L273,293.586L274.5,293.796L276,294L277.5,294.197L279,294.388L280.5,294.573L282,294.751L283.5,294.923L285,295.09L286.5,295.252L288,295.408L289.5,295.559L291,295.705L292.5,295.846L294,295.983L295.5,296.115L297,296.243L298.5,296.366L300,296.486" stroke="rgb(105, 171, 211)" stroke-width="2"/></g></g><path class="foreground" aria-hidden="true" d="" display="none"/></g><g transform="translate(0,0)"><path class="background" aria-hidden="true" d="M0,0h300v300h-300Z"/><g><g class="mark-line role-mark marks" role="graphics-object" aria-roledescription="line mark container"><path aria-label="index: 0; value: 0.005; b: 0.0555555555556" role="graphics-symbol" aria-roledescription="line mark" d="M0,299.727L1.5,299.676L3,299.614L4.5,299.541L6,299.455L7.5,299.352L9,299.229L10.5,299.083L12,298.91L13.5,298.705L15,298.461L16.5,298.171L18,297.827L19.5,297.419L21,296.936L22.5,296.363L24,295.684L25.5,294.881L27,293.932L28.5,292.812L30,291.491L31.5,289.936L33,288.109L34.5,285.968L36,283.466L37.5,280.549L39,277.163L40.5,273.248L42,268.743L43.5,263.59L45,257.734L46.5,251.127L48,243.739L49.5,235.554L51,226.585L52.5,216.874L54,206.497L55.5,195.569L57,184.239L58.5,172.69L60,161.127L61.5,149.769L63,138.835L64.5,128.533L66,119.043L67.5,110.516L69,103.06L70.5,96.741L72,91.588L73.5,87.591L75,84.713L76.5,82.89L78,82.044L79.5,82.087L81,82.924L82.5,84.462L84,86.609L85.5,89.277L87,92.386L88.5,95.862L90,99.638L91.5,103.656L93,107.863L94.5,112.213L96,116.668L97.5,121.192L99,125.756L100.5,130.336L102,134.91L103.5,139.459L105,143.97L106.5,148.43L108,152.827L109.5,157.154L111,161.405L112.5,165.572L114,169.653L115.5,173.644L117,177.543L118.5,181.347L120,185.057L121.5,188.671L123,192.189L124.5,195.613L126,198.942L127.5,202.177L129,205.321L130.5,208.373L132,211.336L133.5,214.211L135,217L136.5,219.705L138,222.328L139.5,224.87L141,227.334L142.5,229.721L144,232.034L145.5,234.274L147,236.443L148.5,238.543L150,240.577L151.5,242.545L153,244.451L154.5,246.295L156,248.08L157.5,249.807L159,251.478L160.5,253.094L162,254.658L163.5,256.171L165,257.635L166.5,259.05L168,260.419L169.5,261.743L171,263.023L172.5,264.262L174,265.459L175.5,266.617L177,267.736L178.5,268.819L180,269.865L181.5,270.877L183,271.855L184.5,272.8L186,273.714L187.5,274.598L189,275.452L190.5,276.278L192,277.076L193.5,277.848L195,278.593L196.5,279.314L198,280.011L199.5,280.684L201,281.335L202.5,281.964L204,282.572L205.5,283.16L207,283.727L208.5,284.276L210,284.807L211.5,285.319L213,285.814L214.5,286.293L216,286.756L217.5,287.203L219,287.635L220.5,288.052L222,288.456L223.5,288.845L225,289.222L226.5,289.586L228,289.938L229.5,290.278L231,290.606L232.5,290.924L234,291.23L235.5,291.527L237,291.813L238.5,292.09L240,292.357L241.5,292.616L243,292.865L244.5,293.106L246,293.339L247.5,293.565L249,293.782L250.5,293.992L252,294.196L253.5,294.392L255,294.582L256.5,294.765L258,294.942L259.5,295.113L261,295.278L262.5,295.438L264,295.592L265.5,295.742L267,295.886L268.5,296.025L270,296.159L271.5,296.289L273,296.415L274.5,296.536L276,296.653L277.5,296.767L279,296.876L280.5,296.982L282,297.084L283.5,297.183L285,297.278L286.5,297.37L288,297.459L289.5,297.545L291,297.628L292.5,297.708L294,297.786L295.5,297.861L297,297.933L298.5,298.003L300,298.071" stroke="rgb(79, 154, 202)" stroke-width="2"/></g></g><path class="foreground" aria-hidden="true" d="" display="none"/></g><g transform="translate(0,0)"><path class="background" aria-hidden="true" d="M0,0h300v300h-300Z"/><g><g class="mark-line role-mark marks" role="graphics-object" aria-roledescription="line mark container"><path aria-label="index: 0; value: 0.005; b: 0.0666666666667" role="graphics-symbol" aria-roledescription="line mark" d="M0,299.727L1.5,299.662L3,299.581L4.5,299.48L6,299.356L7.5,299.202L9,299.01L10.5,298.774L12,298.481L13.5,298.118L15,297.67L16.5,297.116L18,296.432L19.5,295.587L21,294.547L22.5,293.267L24,291.695L25.5,289.768L27,287.414L28.5,284.547L30,281.069L31.5,276.873L33,271.839L34.5,265.846L36,258.773L37.5,250.51L39,240.977L40.5,230.132L42,217.997L43.5,204.668L45,190.33L46.5,175.26L48,159.814L49.5,144.404L51,129.466L52.5,115.42L54,102.632L55.5,91.387L57,81.871L58.5,74.174L60,68.294L61.5,64.157L63,61.637L64.5,60.574L66,60.794L67.5,62.119L69,64.377L70.5,67.409L72,71.071L73.5,75.238L75,79.8L76.5,84.662L78,89.746L79.5,94.985L81,100.323L82.5,105.714L84,111.122L85.5,116.514L87,121.866L88.5,127.159L90,132.376L91.5,137.504L93,142.534L94.5,147.458L96,152.27L97.5,156.967L99,161.546L100.5,166.005L102,170.343L103.5,174.561L105,178.66L106.5,182.639L108,186.5L109.5,190.246L111,193.878L112.5,197.399L114,200.811L115.5,204.115L117,207.316L118.5,210.415L120,213.415L121.5,216.318L123,219.128L124.5,221.846L126,224.476L127.5,227.02L129,229.481L130.5,231.861L132,234.162L133.5,236.387L135,238.538L136.5,240.618L138,242.629L139.5,244.572L141,246.451L142.5,248.267L144,250.022L145.5,251.718L147,253.358L148.5,254.942L150,256.473L151.5,257.952L153,259.382L154.5,260.763L156,262.098L157.5,263.388L159,264.634L160.5,265.838L162,267.001L163.5,268.125L165,269.211L166.5,270.26L168,271.273L169.5,272.252L171,273.198L172.5,274.112L174,274.994L175.5,275.847L177,276.671L178.5,277.466L180,278.235L181.5,278.978L183,279.695L184.5,280.388L186,281.057L187.5,281.704L189,282.328L190.5,282.931L192,283.514L193.5,284.077L195,284.621L196.5,285.146L198,285.653L199.5,286.143L201,286.616L202.5,287.073L204,287.515L205.5,287.941L207,288.353L208.5,288.751L210,289.135L211.5,289.506L213,289.865L214.5,290.211L216,290.546L217.5,290.869L219,291.181L220.5,291.482L222,291.773L223.5,292.054L225,292.326L226.5,292.588L228,292.842L229.5,293.086L231,293.323L232.5,293.551L234,293.771L235.5,293.984L237,294.19L238.5,294.388L240,294.58L241.5,294.765L243,294.944L244.5,295.117L246,295.284L247.5,295.445L249,295.601L250.5,295.751L252,295.897L253.5,296.037L255,296.173L256.5,296.303L258,296.43L259.5,296.552L261,296.67L262.5,296.784L264,296.894L265.5,297L267,297.102L268.5,297.201L270,297.297L271.5,297.39L273,297.479L274.5,297.565L276,297.648L277.5,297.729L279,297.806L280.5,297.881L282,297.954L283.5,298.024L285,298.091L286.5,298.157L288,298.22L289.5,298.281L291,298.339L292.5,298.396L294,298.451L295.5,298.504L297,298.555L298.5,298.605L300,298.652" stroke="rgb(56, 135, 192)" stroke-width="2"/></g></g><path class="foreground" aria-hidden="true" d="" display="none"/></g><g transform="translate(0,0)"><path class="background" aria-hidden="true" d="M0,0h300v300h-300Z"/><g><g class="mark-line role-mark marks" role="graphics-object" aria-roledescription="line mark container"><path aria-label="index: 0; value: 0.005; b: 0.0777777777778" role="graphics-symbol" aria-roledescription="line mark" d="M0,299.727L1.5,299.647L3,299.544L4.5,299.411L6,299.239L7.5,299.017L9,298.73L10.5,298.36L12,297.883L13.5,297.268L15,296.477L16.5,295.46L18,294.155L19.5,292.483L21,290.349L22.5,287.633L24,284.191L25.5,279.856L27,274.434L28.5,267.712L30,259.473L31.5,249.511L33,237.665L34.5,223.86L36,208.146L37.5,190.743L39,172.057L40.5,152.672L42,133.3L43.5,114.697L45,97.57L46.5,82.491L48,69.843L49.5,59.805L51,52.371L52.5,47.396L54,44.639L55.5,43.813L57,44.62L58.5,46.769L60,49.998L61.5,54.078L63,58.812L64.5,64.036L66,69.614L67.5,75.438L69,81.419L70.5,87.486L72,93.584L73.5,99.668L75,105.705L76.5,111.666L78,117.533L79.5,123.29L81,128.924L82.5,134.429L84,139.797L85.5,145.025L87,150.111L88.5,155.054L90,159.855L91.5,164.513L93,169.031L94.5,173.411L96,177.654L97.5,181.764L99,185.744L100.5,189.597L102,193.325L103.5,196.932L105,200.421L106.5,203.796L108,207.06L109.5,210.216L111,213.267L112.5,216.217L114,219.068L115.5,221.824L117,224.487L118.5,227.061L120,229.548L121.5,231.952L123,234.274L124.5,236.518L126,238.686L127.5,240.781L129,242.805L130.5,244.76L132,246.648L133.5,248.473L135,250.235L136.5,251.938L138,253.583L139.5,255.171L141,256.705L142.5,258.188L144,259.619L145.5,261.002L147,262.338L148.5,263.627L150,264.873L151.5,266.077L153,267.239L154.5,268.362L156,269.446L157.5,270.493L159,271.504L160.5,272.481L162,273.424L163.5,274.335L165,275.215L166.5,276.065L168,276.885L169.5,277.678L171,278.443L172.5,279.182L174,279.896L175.5,280.586L177,281.252L178.5,281.895L180,282.516L181.5,283.115L183,283.694L184.5,284.254L186,284.794L187.5,285.315L189,285.819L190.5,286.306L192,286.775L193.5,287.229L195,287.667L196.5,288.09L198,288.499L199.5,288.894L201,289.275L202.5,289.643L204,289.998L205.5,290.341L207,290.673L208.5,290.993L210,291.302L211.5,291.6L213,291.888L214.5,292.167L216,292.436L217.5,292.695L219,292.946L220.5,293.188L222,293.422L223.5,293.647L225,293.865L226.5,294.076L228,294.279L229.5,294.476L231,294.665L232.5,294.848L234,295.025L235.5,295.196L237,295.361L238.5,295.52L240,295.674L241.5,295.822L243,295.966L244.5,296.104L246,296.238L247.5,296.367L249,296.492L250.5,296.612L252,296.728L253.5,296.841L255,296.949L256.5,297.054L258,297.155L259.5,297.253L261,297.347L262.5,297.438L264,297.526L265.5,297.611L267,297.693L268.5,297.772L270,297.848L271.5,297.922L273,297.994L274.5,298.062L276,298.129L277.5,298.193L279,298.255L280.5,298.315L282,298.373L283.5,298.429L285,298.483L286.5,298.535L288,298.585L289.5,298.634L291,298.681L292.5,298.726L294,298.77L295.5,298.812L297,298.853L298.5,298.892L300,298.93" stroke="rgb(36, 115, 180)" stroke-width="2"/></g></g><path class="foreground" aria-hidden="true" d="" display="none"/></g><g transform="translate(0,0)"><path class="background" aria-hidden="true" d="M0,0h300v300h-300Z"/><g><g class="mark-line role-mark marks" role="graphics-object" aria-roledescription="line mark container"><path aria-label="index: 0; value: 0.005; b: 0.0888888888889" role="graphics-symbol" aria-roledescription="line mark" d="M0,299.727L1.5,299.632L3,299.505L4.5,299.333L6,299.101L7.5,298.79L9,298.371L10.5,297.808L12,297.052L13.5,296.038L15,294.682L16.5,292.872L18,290.465L19.5,287.276L21,283.077L22.5,277.593L24,270.501L25.5,261.45L27,250.094L28.5,236.145L30,219.458L31.5,200.122L33,178.544L34.5,155.477L36,131.968L37.5,109.216L39,88.365L40.5,70.326L42,55.659L43.5,44.555L45,36.896L46.5,32.358L48,30.504L49.5,30.869L51,33.007L52.5,36.523L54,41.083L55.5,46.412L57,52.289L58.5,58.54L60,65.03L61.5,71.655L63,78.333L64.5,85.006L66,91.626L67.5,98.16L69,104.582L70.5,110.874L72,117.023L73.5,123.02L75,128.859L76.5,134.536L78,140.051L79.5,145.402L81,150.592L82.5,155.622L84,160.494L85.5,165.211L87,169.777L88.5,174.195L90,178.469L91.5,182.603L93,186.6L94.5,190.465L96,194.2L97.5,197.811L99,201.301L100.5,204.673L102,207.932L103.5,211.081L105,214.123L106.5,217.063L108,219.902L109.5,222.646L111,225.295L112.5,227.855L114,230.328L115.5,232.716L117,235.023L118.5,237.251L120,239.403L121.5,241.482L123,243.489L124.5,245.428L126,247.3L127.5,249.109L129,250.855L130.5,252.542L132,254.171L133.5,255.744L135,257.264L136.5,258.731L138,260.148L139.5,261.516L141,262.838L142.5,264.114L144,265.346L145.5,266.536L147,267.686L148.5,268.795L150,269.867L151.5,270.902L153,271.902L154.5,272.867L156,273.799L157.5,274.699L159,275.568L160.5,276.408L162,277.218L163.5,278.001L165,278.757L166.5,279.486L168,280.191L169.5,280.872L171,281.529L172.5,282.164L174,282.776L175.5,283.368L177,283.94L178.5,284.492L180,285.024L181.5,285.539L183,286.036L184.5,286.516L186,286.979L187.5,287.427L189,287.859L190.5,288.276L192,288.679L193.5,289.068L195,289.443L196.5,289.806L198,290.157L199.5,290.495L201,290.821L202.5,291.137L204,291.441L205.5,291.736L207,292.02L208.5,292.294L210,292.559L211.5,292.814L213,293.061L214.5,293.3L216,293.53L217.5,293.752L219,293.967L220.5,294.175L222,294.375L223.5,294.568L225,294.755L226.5,294.935L228,295.109L229.5,295.277L231,295.44L232.5,295.596L234,295.748L235.5,295.894L237,296.035L238.5,296.171L240,296.303L241.5,296.43L243,296.553L244.5,296.671L246,296.785L247.5,296.896L249,297.003L250.5,297.106L252,297.205L253.5,297.301L255,297.394L256.5,297.483L258,297.57L259.5,297.653L261,297.734L262.5,297.812L264,297.887L265.5,297.96L267,298.03L268.5,298.098L270,298.163L271.5,298.226L273,298.287L274.5,298.346L276,298.403L277.5,298.458L279,298.511L280.5,298.562L282,298.611L283.5,298.659L285,298.705L286.5,298.75L288,298.793L289.5,298.834L291,298.874L292.5,298.913L294,298.95L295.5,298.986L297,299.021L298.5,299.055L300,299.087" stroke="rgb(20, 94, 166)" stroke-width="2"/></g></g><path class="foreground" aria-hidden="true" d="" display="none"/></g><g transform="translate(0,0)"><path class="background" aria-hidden="true" d="M0,0h300v300h-300Z"/><g><g class="mark-line role-mark marks" role="graphics-object" aria-roledescription="line mark container"><path aria-label="index: 0; value: 0.005; b: 0.1" role="graphics-symbol" aria-roledescription="line mark" d="M0,299.727L1.5,299.617L3,299.462L4.5,299.244L6,298.939L7.5,298.51L9,297.91L10.5,297.071L12,295.898L13.5,294.264L15,291.994L16.5,288.856L18,284.547L19.5,278.681L21,270.793L22.5,260.356L24,246.843L25.5,229.832L27,209.17L28.5,185.147L30,158.633L31.5,131.048L33,104.152L34.5,79.672L36,58.943L37.5,42.697L39,31.067L40.5,23.725L42,20.083L43.5,19.46L45,21.198L46.5,24.717L48,29.541L49.5,35.288L51,41.667L52.5,48.456L54,55.489L55.5,62.642L57,69.824L58.5,76.971L60,84.034L61.5,90.98L63,97.783L64.5,104.429L66,110.905L67.5,117.205L69,123.326L70.5,129.266L72,135.025L73.5,140.605L75,146.009L76.5,151.24L78,156.301L79.5,161.197L81,165.931L82.5,170.508L84,174.933L85.5,179.209L87,183.342L88.5,187.336L90,191.194L91.5,194.922L93,198.524L94.5,202.003L96,205.364L97.5,208.61L99,211.746L100.5,214.774L102,217.699L103.5,220.525L105,223.253L106.5,225.888L108,228.433L109.5,230.891L111,233.265L112.5,235.557L114,237.771L115.5,239.909L117,241.974L118.5,243.967L120,245.893L121.5,247.752L123,249.547L124.5,251.281L126,252.955L127.5,254.572L129,256.134L130.5,257.641L132,259.097L133.5,260.503L135,261.861L136.5,263.172L138,264.438L139.5,265.66L141,266.84L142.5,267.98L144,269.081L145.5,270.144L147,271.17L148.5,272.161L150,273.118L151.5,274.043L153,274.935L154.5,275.797L156,276.629L157.5,277.432L159,278.208L160.5,278.957L162,279.681L163.5,280.379L165,281.054L166.5,281.705L168,282.334L169.5,282.942L171,283.528L172.5,284.095L174,284.642L175.5,285.17L177,285.68L178.5,286.172L180,286.647L181.5,287.106L183,287.55L184.5,287.978L186,288.391L187.5,288.79L189,289.176L190.5,289.548L192,289.907L193.5,290.254L195,290.589L196.5,290.913L198,291.226L199.5,291.527L201,291.819L202.5,292.1L204,292.372L205.5,292.634L207,292.887L208.5,293.132L210,293.368L211.5,293.596L213,293.816L214.5,294.029L216,294.234L217.5,294.432L219,294.624L220.5,294.809L222,294.987L223.5,295.16L225,295.326L226.5,295.487L228,295.642L229.5,295.792L231,295.936L232.5,296.076L234,296.211L235.5,296.341L237,296.467L238.5,296.589L240,296.706L241.5,296.819L243,296.929L244.5,297.034L246,297.136L247.5,297.235L249,297.33L250.5,297.422L252,297.51L253.5,297.596L255,297.679L256.5,297.758L258,297.835L259.5,297.91L261,297.982L262.5,298.051L264,298.118L265.5,298.183L267,298.245L268.5,298.306L270,298.364L271.5,298.42L273,298.475L274.5,298.527L276,298.578L277.5,298.627L279,298.674L280.5,298.719L282,298.763L283.5,298.806L285,298.847L286.5,298.887L288,298.925L289.5,298.962L291,298.998L292.5,299.032L294,299.065L295.5,299.097L297,299.129L298.5,299.158L300,299.187" stroke="rgb(10, 74, 144)" stroke-width="2"/></g></g><path class="foreground" aria-hidden="true" d="" display="none"/></g></g><g class="mark-group role-legend" role="graphics-symbol" aria-roledescription="legend" aria-label="Gradient legend titled 'b' for stroke color with values from 0.00 to 0.10"><g transform="translate(320,0)"><path class="background" aria-hidden="true" d="M0,0h38v216h-38Z" pointer-events="none"/><g><g class="mark-group role-legend-entry"><g transform="translate(0,16)"><path class="background" aria-hidden="true" d="M0,0h0v0h0Z" pointer-events="none"/><g><g class="mark-rect role-legend-gradient" pointer-events="none"><path d="M0,0h16v200h-16Z" fill="url(#gradient_0)" stroke="#ddd" stroke-width="0" opacity="1"/></g><g class="mark-text role-legend-label" pointer-events="none"><text text-anchor="start" transform="translate(18,198)" font-family="sans-serif" font-size="10px" fill="#000" opacity="1">0.00</text><text text-anchor="start" transform="translate(18,163)" font-family="sans-serif" font-size="10px" fill="#000" opacity="1">0.02</text><text text-anchor="start" transform="translate(18,123.00000000000001)" font-family="sans-serif" font-size="10px" fill="#000" opacity="1">0.04</text><text text-anchor="start" transform="translate(18,83)" font-family="sans-serif" font-size="10px" fill="#000" opacity="1">0.06</text><text text-anchor="start" transform="translate(18,43.000000000000014)" font-family="sans-serif" font-size="10px" fill="#000" opacity="1">0.08</text><text text-anchor="start" transform="translate(18,8)" font-family="sans-serif" font-size="10px" fill="#000" opacity="1">0.10</text></g></g><path class="foreground" aria-hidden="true" d="" pointer-events="none" display="none"/></g></g><g class="mark-text role-legend-title" pointer-events="none"><text text-anchor="start" transform="translate(0,9)" font-family="sans-serif" font-size="11px" font-weight="bold" fill="#000" opacity="1">b</text></g></g><path class="foreground" aria-hidden="true" d="" pointer-events="none" display="none"/></g></g></g><path class="foreground" aria-hidden="true" d="" display="none"/></g></g></g><defs><linearGradient id="gradient_0" x1="0" x2="0" y1="1" y2="0"><stop offset="0" stop-color="rgb(207, 225, 242)"/><stop offset="0.049999999999999996" stop-color="rgb(199, 221, 239)"/><stop offset="0.09999999999999999" stop-color="rgb(190, 216, 236)"/><stop offset="0.15" stop-color="rgb(179, 211, 233)"/><stop offset="0.19999999999999998" stop-color="rgb(168, 206, 229)"/><stop offset="0.25" stop-color="rgb(156, 200, 226)"/><stop offset="0.3" stop-color="rgb(143, 193, 222)"/><stop offset="0.35000000000000003" stop-color="rgb(130, 186, 219)"/><stop offset="0.39999999999999997" stop-color="rgb(116, 178, 215)"/><stop offset="0.44999999999999996" stop-color="rgb(104, 171, 211)"/><stop offset="0.5" stop-color="rgb(91, 163, 207)"/><stop offset="0.5499999999999999" stop-color="rgb(80, 155, 203)"/><stop offset="0.6" stop-color="rgb(69, 146, 198)"/><stop offset="0.65" stop-color="rgb(59, 138, 194)"/><stop offset="0.7000000000000001" stop-color="rgb(49, 129, 189)"/><stop offset="0.7499999999999999" stop-color="rgb(41, 120, 184)"/><stop offset="0.7999999999999999" stop-color="rgb(32, 111, 178)"/><stop offset="0.85" stop-color="rgb(25, 102, 171)"/><stop offset="0.8999999999999999" stop-color="rgb(18, 92, 164)"/><stop offset="0.95" stop-color="rgb(14, 83, 154)"/><stop offset="1" stop-color="rgb(10, 74, 144)"/></linearGradient></defs></svg>